  0
SECTION
  2
HEADER
  9
$ACADVER
  1
AC1014
  9
$ACADMAINTVER
 70
     9
  9
$DWGCODEPAGE
  3
ANSI_936
  9
$INSBASE
 10
0.0
 20
0.0
 30
0.0
  9
$EXTMIN
 10
1.000000000000000E+20
 20
1.000000000000000E+20
 30
1.000000000000000E+20
  9
$EXTMAX
 10
-1.000000000000000E+20
 20
-1.000000000000000E+20
 30
-1.000000000000000E+20
  9
$LIMMIN
 10
0.0
 20
0.0
  9
$LIMMAX
 10
12.0
 20
9.0
  9
$ORTHOMODE
 70
     0
  9
$REGENMODE
 70
     1
  9
$FILLMODE
 70
     1
  9
$QTEXTMODE
 70
     0
  9
$MIRRTEXT
 70
     1
  9
$DRAGMODE
 70
     2
  9
$LTSCALE
 40
1.0
  9
$OSMODE
 70
    37
  9
$ATTMODE
 70
     1
  9
$TEXTSIZE
 40
0.2
  9
$TRACEWID
 40
0.05
  9
$TEXTSTYLE
  7
STANDARD
  9
$CLAYER
  8
0
  9
$CELTYPE
  6
BYLAYER
  9
$CECOLOR
 62
   256
  9
$CELTSCALE
 40
1.0
  9
$DELOBJ
 70
     1
  9
$DISPSILH
 70
     0
  9
$DIMSCALE
 40
1.0
  9
$DIMASZ
 40
0.18
  9
$DIMEXO
 40
0.0625
  9
$DIMDLI
 40
0.38
  9
$DIMRND
 40
0.0
  9
$DIMDLE
 40
0.0
  9
$DIMEXE
 40
0.18
  9
$DIMTP
 40
0.0
  9
$DIMTM
 40
0.0
  9
$DIMTXT
 40
0.18
  9
$DIMCEN
 40
0.09
  9
$DIMTSZ
 40
0.0
  9
$DIMTOL
 70
     0
  9
$DIMLIM
 70
     0
  9
$DIMTIH
 70
     1
  9
$DIMTOH
 70
     1
  9
$DIMSE1
 70
     0
  9
$DIMSE2
 70
     0
  9
$DIMTAD
 70
     0
  9
$DIMZIN
 70
     0
  9
$DIMBLK
  1

  9
$DIMASO
 70
     1
  9
$DIMSHO
 70
     1
  9
$DIMPOST
  1

  9
$DIMAPOST
  1

  9
$DIMALT
 70
     0
  9
$DIMALTD
 70
     2
  9
$DIMALTF
 40
25.4
  9
$DIMLFAC
 40
1.0
  9
$DIMTOFL
 70
     0
  9
$DIMTVP
 40
0.0
  9
$DIMTIX
 70
     0
  9
$DIMSOXD
 70
     0
  9
$DIMSAH
 70
     0
  9
$DIMBLK1
  1

  9
$DIMBLK2
  1

  9
$DIMSTYLE
  2
STANDARD
  9
$DIMCLRD
 70
     0
  9
$DIMCLRE
 70
     0
  9
$DIMCLRT
 70
     0
  9
$DIMTFAC
 40
1.0
  9
$DIMGAP
 40
0.09
  9
$DIMJUST
 70
     0
  9
$DIMSD1
 70
     0
  9
$DIMSD2
 70
     0
  9
$DIMTOLJ
 70
     1
  9
$DIMTZIN
 70
     0
  9
$DIMALTZ
 70
     0
  9
$DIMALTTZ
 70
     0
  9
$DIMFIT
 70
     3
  9
$DIMUPT
 70
     0
  9
$DIMUNIT
 70
     2
  9
$DIMDEC
 70
     4
  9
$DIMTDEC
 70
     4
  9
$DIMALTU
 70
     2
  9
$DIMALTTD
 70
     2
  9
$DIMTXSTY
  7
STANDARD
  9
$DIMAUNIT
 70
     0
  9
$LUNITS
 70
     2
  9
$LUPREC
 70
     4
  9
$SKETCHINC
 40
0.1
  9
$FILLETRAD
 40
0.0
  9
$AUNITS
 70
     0
  9
$AUPREC
 70
     0
  9
$MENU
  1
.
  9
$ELEVATION
 40
0.0
  9
$PELEVATION
 40
0.0
  9
$THICKNESS
 40
0.0
  9
$LIMCHECK
 70
     0
  9
$CHAMFERA
 40
0.0
  9
$CHAMFERB
 40
0.0
  9
$CHAMFERC
 40
0.0
  9
$CHAMFERD
 40
0.0
  9
$SKPOLY
 70
     0
  9
$TDCREATE
 40
2460947.92966287
  9
$TDUPDATE
 40
2460947.929663033
  9
$TDINDWG
 40
0.0000000116
  9
$TDUSRTIMER
 40
0.0000000116
  9
$USRTIMER
 70
     1
  9
$ANGBASE
 50
0.0
  9
$ANGDIR
 70
     0
  9
$PDMODE
 70
     0
  9
$PDSIZE
 40
0.0
  9
$PLINEWID
 40
0.0
  9
$COORDS
 70
     1
  9
$SPLFRAME
 70
     0
  9
$SPLINETYPE
 70
     6
  9
$SPLINESEGS
 70
     8
  9
$ATTDIA
 70
     0
  9
$ATTREQ
 70
     1
  9
$HANDLING
 70
     1
  9
$HANDSEED
  5
217
  9
$SURFTAB1
 70
     6
  9
$SURFTAB2
 70
     6
  9
$SURFTYPE
 70
     6
  9
$SURFU
 70
     6
  9
$SURFV
 70
     6
  9
$UCSNAME
  2

  9
$UCSORG
 10
0.0
 20
0.0
 30
0.0
  9
$UCSXDIR
 10
1.0
 20
0.0
 30
0.0
  9
$UCSYDIR
 10
0.0
 20
1.0
 30
0.0
  9
$PUCSNAME
  2

  9
$PUCSORG
 10
0.0
 20
0.0
 30
0.0
  9
$PUCSXDIR
 10
1.0
 20
0.0
 30
0.0
  9
$PUCSYDIR
 10
0.0
 20
1.0
 30
0.0
  9
$USERI1
 70
     0
  9
$USERI2
 70
     0
  9
$USERI3
 70
     0
  9
$USERI4
 70
     0
  9
$USERI5
 70
     0
  9
$USERR1
 40
0.0
  9
$USERR2
 40
0.0
  9
$USERR3
 40
0.0
  9
$USERR4
 40
0.0
  9
$USERR5
 40
0.0
  9
$WORLDVIEW
 70
     1
  9
$SHADEDGE
 70
     3
  9
$SHADEDIF
 70
    70
  9
$TILEMODE
 70
     1
  9
$MAXACTVP
 70
    64
  9
$PINSBASE
 10
0.0
 20
0.0
 30
0.0
  9
$PLIMCHECK
 70
     0
  9
$PEXTMIN
 10
1.000000000000000E+20
 20
1.000000000000000E+20
 30
1.000000000000000E+20
  9
$PEXTMAX
 10
-1.000000000000000E+20
 20
-1.000000000000000E+20
 30
-1.000000000000000E+20
  9
$PLIMMIN
 10
0.0
 20
0.0
  9
$PLIMMAX
 10
12.0
 20
9.0
  9
$UNITMODE
 70
     0
  9
$VISRETAIN
 70
     1
  9
$PLINEGEN
 70
     0
  9
$PSLTSCALE
 70
     1
  9
$TREEDEPTH
 70
  3020
  9
$PICKSTYLE
 70
     1
  9
$CMLSTYLE
  2
STANDARD
  9
$CMLJUST
 70
     0
  9
$CMLSCALE
 40
1.0
  9
$PROXYGRAPHICS
 70
     1
  9
$MEASUREMENT
 70
     1
  0
ENDSEC
  0
SECTION
  2
CLASSES
  0
CLASS
  1
ACDBDICTIONARYWDFLT
  2
AcDbDictionaryWithDefault
  3
ObjectDBX Classes
 90
        0
280
     0
281
     0
  0
CLASS
  1
VISUALSTYLE
  2
AcDbVisualStyle
  3
ObjectDBX Classes
 90
     4095
280
     0
281
     0
  0
CLASS
  1
MATERIAL
  2
AcDbMaterial
  3
ObjectDBX Classes
 90
     1153
280
     0
281
     0
  0
CLASS
  1
SCALE
  2
AcDbScale
  3
ObjectDBX Classes
 90
     1153
280
     0
281
     0
  0
CLASS
  1
TABLESTYLE
  2
AcDbTableStyle
  3
ObjectDBX Classes
 90
     4095
280
     0
281
     0
  0
CLASS
  1
MLEADERSTYLE
  2
AcDbMLeaderStyle
  3
ACDB_MLEADERSTYLE_CLASS
 90
     4095
280
     0
281
     0
  0
CLASS
  1
SUN
  2
AcDbSun
  3
SCENEOE
 90
     1153
280
     0
281
     0
  0
CLASS
  1
DICTIONARYVAR
  2
AcDbDictionaryVar
  3
ObjectDBX Classes
 90
        0
280
     0
281
     0
  0
CLASS
  1
XRECORD
  2
AcDbXrecord
  3
ObjectDBX Classes
 90
        0
280
     0
281
     0
  0
CLASS
  1
LWPOLYLINE
  2
AcDbPolyline
  3
ObjectDBX Classes
 90
        0
280
     0
281
     1
  0
CLASS
  1
HATCH
  2
AcDbHatch
  3
ObjectDBX Classes
 90
        0
280
     0
281
     1
  0
CLASS
  1
ACDBPLACEHOLDER
  2
AcDbPlaceHolder
  3
ObjectDBX Classes
 90
        0
280
     0
281
     0
  0
CLASS
  1
LAYOUT
  2
AcDbLayout
  3
ObjectDBX Classes
 90
        0
280
     0
281
     0
  0
ENDSEC
  0
SECTION
  2
TABLES
  0
TABLE
  2
VPORT
  5
8
102
{ACAD_XDICTIONARY
360
20C
102
}
330
0
100
AcDbSymbolTable
 70
     1
  0
VPORT
  5
29
330
8
100
AcDbSymbolTableRecord
100
AcDbViewportTableRecord
  2
*ACTIVE
 70
     0
 10
0.0
 20
0.0
 11
1.0
 21
1.0
 12
0.0
 22
0.0
 13
0.0
 23
0.0
 14
0.5
 24
0.5
 15
0.5
 25
0.5
 16
0.0
 26
0.0
 36
1.0
 17
0.0
 27
0.0
 37
-1000.0
 40
926.7799378424648
 41
1.536039768019884
 42
50.0
 43
1539.428824139766
 44
1707.756053459179
 50
0.0
 51
0.0
 71
     0
 72
   100
 73
     1
 74
     3
 75
     0
 76
     0
 77
     0
 78
     0
  0
ENDTAB
  0
TABLE
  2
LTYPE
  5
5
330
0
100
AcDbSymbolTable
 70
     1
  0
LTYPE
  5
14
330
5
100
AcDbSymbolTableRecord
100
AcDbLinetypeTableRecord
  2
BYBLOCK
 70
     0
  3

 72
    65
 73
     0
 40
0.0
  0
LTYPE
  5
15
330
5
100
AcDbSymbolTableRecord
100
AcDbLinetypeTableRecord
  2
BYLAYER
 70
     0
  3

 72
    65
 73
     0
 40
0.0
  0
LTYPE
  5
16
330
5
100
AcDbSymbolTableRecord
100
AcDbLinetypeTableRecord
  2
CONTINUOUS
 70
     0
  3
Solid line
 72
    65
 73
     0
 40
0.0
  0
ENDTAB
  0
TABLE
  2
LAYER
  5
2
330
0
100
AcDbSymbolTable
 70
     3
  0
LAYER
  5
10
330
2
100
AcDbSymbolTableRecord
100
AcDbLayerTableRecord
  2
0
 70
     0
 62
     7
  6
CONTINUOUS
  0
LAYER
  5
5E
330
2
100
AcDbSymbolTableRecord
100
AcDbLayerTableRecord
  2
PROFILEEDGES
 70
     0
 62
     7
  6
CONTINUOUS
  0
LAYER
  5
5F
330
2
100
AcDbSymbolTableRecord
100
AcDbLayerTableRecord
  2
SECTIONCUTEDGES
 70
     0
 62
     7
  6
CONTINUOUS
  0
ENDTAB
  0
TABLE
  2
STYLE
  5
3
330
0
100
AcDbSymbolTable
 70
     1
  0
STYLE
  5
11
330
3
100
AcDbSymbolTableRecord
100
AcDbTextStyleTableRecord
  2
STANDARD
 70
     0
 40
0.0
 41
1.0
 50
0.0
 71
     0
 42
0.2
  3
txt
  4

  0
ENDTAB
  0
TABLE
  2
VIEW
  5
6
330
0
100
AcDbSymbolTable
 70
     0
  0
ENDTAB
  0
TABLE
  2
UCS
  5
7
330
0
100
AcDbSymbolTable
 70
     0
  0
ENDTAB
  0
TABLE
  2
APPID
  5
9
330
0
100
AcDbSymbolTable
 70
     2
  0
APPID
  5
12
330
9
100
AcDbSymbolTableRecord
100
AcDbRegAppTableRecord
  2
ACAD
 70
     0
  0
APPID
  5
216
330
9
100
AcDbSymbolTableRecord
100
AcDbRegAppTableRecord
  2
ACAD_MLEADERVER
 70
     0
  0
ENDTAB
  0
TABLE
  2
DIMSTYLE
  5
A
330
0
100
AcDbSymbolTable
 70
     1
  0
DIMSTYLE
105
27
330
A
100
AcDbSymbolTableRecord
100
AcDbDimStyleTableRecord
  2
STANDARD
 70
     0
  3

  4

  5

  6

  7

 40
1.0
 41
0.18
 42
0.0625
 43
0.38
 44
0.18
 45
0.0
 46
0.0
 47
0.0
 48
0.0
140
0.18
141
0.09
142
0.0
143
25.4
144
1.0
145
0.0
146
1.0
147
0.09
 71
     0
 72
     0
 73
     1
 74
     1
 75
     0
 76
     0
 77
     0
 78
     0
170
     0
171
     2
172
     0
173
     0
174
     0
175
     0
176
     0
177
     0
178
     0
270
     2
271
     4
272
     4
273
     2
274
     2
340
11
275
     0
280
     0
281
     0
282
     0
283
     1
284
     0
285
     0
286
     0
287
     3
288
     0
  0
ENDTAB
  0
TABLE
  2
BLOCK_RECORD
  5
1
330
0
100
AcDbSymbolTable
 70
     0
  0
BLOCK_RECORD
  5
1F
330
1
100
AcDbSymbolTableRecord
100
AcDbBlockTableRecord
  2
*MODEL_SPACE
  0
BLOCK_RECORD
  5
1B
330
1
100
AcDbSymbolTableRecord
100
AcDbBlockTableRecord
  2
*PAPER_SPACE
  0
ENDTAB
  0
ENDSEC
  0
SECTION
  2
BLOCKS
  0
BLOCK
  5
20
330
1F
100
AcDbEntity
  8
0
100
AcDbBlockBegin
  2
*MODEL_SPACE
 70
     0
 10
0.0
 20
0.0
 30
0.0
  3
*MODEL_SPACE
  1

  0
ENDBLK
  5
21
330
1F
100
AcDbEntity
  8
0
100
AcDbBlockEnd
  0
BLOCK
  5
1C
330
1B
100
AcDbEntity
 67
     1
  8
0
100
AcDbBlockBegin
  2
*PAPER_SPACE
 70
     0
 10
0.0
 20
0.0
 30
0.0
  3
*PAPER_SPACE
  1

  0
ENDBLK
  5
1D
330
1B
100
AcDbEntity
 67
     1
  8
0
100
AcDbBlockEnd
  0
ENDSEC
  0
SECTION
  2
ENTITIES
  0
LINE
  5
60
330
1F
100
AcDbEntity
  8
0
100
AcDbLine
 10
-428.6738382531054
 20
-283.0355747814475
 30
0.0
 11
-428.6738382531054
 21
-340.0355747814475
 31
0.0
  0
LINE
  5
61
330
1F
100
AcDbEntity
  8
0
100
AcDbLine
 10
-382.1738382531051
 20
-283.0355747814475
 30
0.0
 11
-428.6738382531054
 21
-283.0355747814475
 31
0.0
  0
LINE
  5
62
330
1F
100
AcDbEntity
  8
0
100
AcDbLine
 10
-382.173838253105
 20
-340.0355747814475
 30
0.0
 11
-382.1738382531051
 21
-283.0355747814475
 31
0.0
  0
LINE
  5
63
330
1F
100
AcDbEntity
  8
0
100
AcDbLine
 10
-428.6738382531054
 20
-340.0355747814475
 30
0.0
 11
-382.173838253105
 21
-340.0355747814475
 31
0.0
  0
LINE
  5
64
330
1F
100
AcDbEntity
  8
0
100
AcDbLine
 10
-335.4238382531054
 20
-381.5355747814474
 30
0.0
 11
-335.4238382531054
 21
-241.5355747814474
 31
0.0
  0
LINE
  5
65
330
1F
100
AcDbEntity
  8
0
100
AcDbLine
 10
-335.4238382531054
 20
-241.5355747814474
 30
0.0
 11
-475.4238382531053
 21
-241.5355747814475
 31
0.0
  0
LINE
  5
66
330
1F
100
AcDbEntity
  8
0
100
AcDbLine
 10
-475.4238382531053
 20
-241.5355747814475
 30
0.0
 11
-475.4238382531049
 21
-381.5355747814475
 31
0.0
  0
LINE
  5
67
330
1F
100
AcDbEntity
  8
0
100
AcDbLine
 10
-475.4238382531049
 20
-381.5355747814475
 30
0.0
 11
-335.4238382531054
 21
-381.5355747814474
 31
0.0
  0
LINE
  5
68
330
1F
100
AcDbEntity
  8
0
100
AcDbLine
 10
-467.7219352919611
 20
-373.8336718203038
 30
0.0
 11
-466.2650001496882
 21
-374.674833716887
 31
0.0
  0
LINE
  5
69
330
1F
100
AcDbEntity
  8
0
100
AcDbLine
 10
-466.2650001496882
 20
-374.674833716887
 30
0.0
 11
-464.5826763565219
 21
-374.674833716887
 31
0.0
  0
LINE
  5
6A
330
1F
100
AcDbEntity
  8
0
100
AcDbLine
 10
-464.5826763565219
 20
-374.674833716887
 30
0.0
 11
-463.1257412142489
 21
-373.8336718203037
 31
0.0
  0
LINE
  5
6B
330
1F
100
AcDbEntity
  8
0
100
AcDbLine
 10
-463.1257412142489
 20
-373.8336718203037
 30
0.0
 11
-462.2845793176657
 21
-372.3767366780306
 31
0.0
  0
LINE
  5
6C
330
1F
100
AcDbEntity
  8
0
100
AcDbLine
 10
-462.2845793176657
 20
-372.3767366780306
 30
0.0
 11
-462.2845793176657
 21
-370.6944128848642
 31
0.0
  0
LINE
  5
6D
330
1F
100
AcDbEntity
  8
0
100
AcDbLine
 10
-462.2845793176657
 20
-370.6944128848642
 30
0.0
 11
-463.1257412142489
 21
-369.2374777425912
 31
0.0
  0
LINE
  5
6E
330
1F
100
AcDbEntity
  8
0
100
AcDbLine
 10
-463.1257412142489
 20
-369.2374777425912
 30
0.0
 11
-464.5826763565219
 21
-368.3963158460081
 31
0.0
  0
LINE
  5
6F
330
1F
100
AcDbEntity
  8
0
100
AcDbLine
 10
-464.5826763565219
 20
-368.3963158460081
 30
0.0
 11
-466.2650001496882
 21
-368.3963158460082
 31
0.0
  0
LINE
  5
70
330
1F
100
AcDbEntity
  8
0
100
AcDbLine
 10
-466.2650001496882
 20
-368.3963158460082
 30
0.0
 11
-467.7219352919611
 21
-369.2374777425914
 31
0.0
  0
LINE
  5
71
330
1F
100
AcDbEntity
  8
0
100
AcDbLine
 10
-467.7219352919611
 20
-369.2374777425914
 30
0.0
 11
-468.5630971885443
 21
-370.6944128848645
 31
0.0
  0
LINE
  5
72
330
1F
100
AcDbEntity
  8
0
100
AcDbLine
 10
-468.5630971885443
 20
-370.6944128848645
 30
0.0
 11
-468.5630971885443
 21
-372.3767366780308
 31
0.0
  0
LINE
  5
73
330
1F
100
AcDbEntity
  8
0
100
AcDbLine
 10
-468.5630971885443
 20
-372.3767366780308
 30
0.0
 11
-467.7219352919611
 21
-373.8336718203038
 31
0.0
  0
LINE
  5
74
330
1F
100
AcDbEntity
  8
0
100
AcDbLine
 10
-467.7219352919615
 20
-249.2374777425912
 30
0.0
 11
-466.2650001496885
 21
-248.3963158460081
 31
0.0
  0
LINE
  5
75
330
1F
100
AcDbEntity
  8
0
100
AcDbLine
 10
-466.2650001496885
 20
-248.3963158460081
 30
0.0
 11
-464.5826763565222
 21
-248.3963158460082
 31
0.0
  0
LINE
  5
76
330
1F
100
AcDbEntity
  8
0
100
AcDbLine
 10
-464.5826763565222
 20
-248.3963158460082
 30
0.0
 11
-463.1257412142489
 21
-249.2374777425914
 31
0.0
  0
LINE
  5
77
330
1F
100
AcDbEntity
  8
0
100
AcDbLine
 10
-463.1257412142489
 20
-249.2374777425914
 30
0.0
 11
-462.2845793176661
 21
-250.6944128848645
 31
0.0
  0
LINE
  5
78
330
1F
100
AcDbEntity
  8
0
100
AcDbLine
 10
-462.2845793176661
 20
-252.3767366780308
 30
0.0
 11
-463.1257412142493
 21
-253.8336718203038
 31
0.0
  0
LINE
  5
79
330
1F
100
AcDbEntity
  8
0
100
AcDbLine
 10
-463.1257412142493
 20
-253.8336718203038
 30
0.0
 11
-464.5826763565222
 21
-254.6748337168869
 31
0.0
  0
LINE
  5
7A
330
1F
100
AcDbEntity
  8
0
100
AcDbLine
 10
-466.2650001496885
 20
-254.6748337168868
 30
0.0
 11
-467.7219352919615
 21
-253.8336718203036
 31
0.0
  0
LINE
  5
7B
330
1F
100
AcDbEntity
  8
0
100
AcDbLine
 10
-467.7219352919615
 20
-253.8336718203036
 30
0.0
 11
-468.5630971885447
 21
-252.3767366780305
 31
0.0
  0
LINE
  5
7C
330
1F
100
AcDbEntity
  8
0
100
AcDbLine
 10
-468.5630971885447
 20
-252.3767366780305
 30
0.0
 11
-468.5630971885447
 21
-250.6944128848642
 31
0.0
  0
LINE
  5
7D
330
1F
100
AcDbEntity
  8
0
100
AcDbLine
 10
-468.5630971885447
 20
-250.6944128848642
 30
0.0
 11
-467.7219352919615
 21
-249.2374777425912
 31
0.0
  0
LINE
  5
7E
330
1F
100
AcDbEntity
  8
0
100
AcDbLine
 10
-347.7219352919614
 20
-253.8336718203037
 30
0.0
 11
-348.5630971885445
 21
-252.3767366780307
 31
0.0
  0
LINE
  5
7F
330
1F
100
AcDbEntity
  8
0
100
AcDbLine
 10
-348.5630971885445
 20
-250.6944128848644
 30
0.0
 11
-347.7219352919617
 21
-249.2374777425913
 31
0.0
  0
LINE
  5
80
330
1F
100
AcDbEntity
  8
0
100
AcDbLine
 10
-347.7219352919617
 20
-249.2374777425913
 30
0.0
 11
-346.2650001496884
 21
-248.3963158460081
 31
0.0
  0
LINE
  5
81
330
1F
100
AcDbEntity
  8
0
100
AcDbLine
 10
-346.2650001496884
 20
-248.3963158460081
 30
0.0
 11
-344.582676356522
 21
-248.396315846008
 31
0.0
  0
LINE
  5
82
330
1F
100
AcDbEntity
  8
0
100
AcDbLine
 10
-344.582676356522
 20
-248.396315846008
 30
0.0
 11
-343.1257412142491
 21
-249.2374777425911
 31
0.0
  0
LINE
  5
83
330
1F
100
AcDbEntity
  8
0
100
AcDbLine
 10
-343.1257412142491
 20
-249.2374777425911
 30
0.0
 11
-342.2845793176659
 21
-250.6944128848641
 31
0.0
  0
LINE
  5
84
330
1F
100
AcDbEntity
  8
0
100
AcDbLine
 10
-342.2845793176659
 20
-250.6944128848641
 30
0.0
 11
-342.2845793176659
 21
-252.3767366780304
 31
0.0
  0
LINE
  5
85
330
1F
100
AcDbEntity
  8
0
100
AcDbLine
 10
-342.2845793176659
 20
-252.3767366780304
 30
0.0
 11
-343.1257412142488
 21
-253.8336718203035
 31
0.0
  0
LINE
  5
86
330
1F
100
AcDbEntity
  8
0
100
AcDbLine
 10
-343.1257412142488
 20
-253.8336718203035
 30
0.0
 11
-344.582676356522
 21
-254.6748337168867
 31
0.0
  0
LINE
  5
87
330
1F
100
AcDbEntity
  8
0
100
AcDbLine
 10
-346.2650001496884
 20
-254.6748337168868
 30
0.0
 11
-347.7219352919614
 21
-253.8336718203037
 31
0.0
  0
LINE
  5
88
330
1F
100
AcDbEntity
  8
0
100
AcDbLine
 10
-348.6738382531052
 20
-371.5355747814475
 30
0.0
 11
-348.2384208154046
 21
-373.1605747814475
 31
0.0
  0
LINE
  5
89
330
1F
100
AcDbEntity
  8
0
100
AcDbLine
 10
-348.2384208154046
 20
-373.1605747814475
 30
0.0
 11
-347.0488382531053
 21
-374.3501573437469
 31
0.0
  0
LINE
  5
8A
330
1F
100
AcDbEntity
  8
0
100
AcDbLine
 10
-347.0488382531053
 20
-374.3501573437469
 30
0.0
 11
-345.4238382531053
 21
-374.7855747814474
 31
0.0
  0
LINE
  5
8B
330
1F
100
AcDbEntity
  8
0
100
AcDbLine
 10
-345.4238382531053
 20
-374.7855747814474
 30
0.0
 11
-343.7988382531053
 21
-374.3501573437469
 31
0.0
  0
LINE
  5
8C
330
1F
100
AcDbEntity
  8
0
100
AcDbLine
 10
-342.6092556908059
 20
-373.1605747814475
 30
0.0
 11
-342.1738382531053
 21
-371.5355747814475
 31
0.0
  0
LINE
  5
8D
330
1F
100
AcDbEntity
  8
0
100
AcDbLine
 10
-342.1738382531053
 20
-371.5355747814475
 30
0.0
 11
-342.6092556908059
 21
-369.9105747814475
 31
0.0
  0
LINE
  5
8E
330
1F
100
AcDbEntity
  8
0
100
AcDbLine
 10
-342.6092556908059
 20
-369.9105747814475
 30
0.0
 11
-343.7988382531053
 21
-368.7209922191481
 31
0.0
  0
LINE
  5
8F
330
1F
100
AcDbEntity
  8
0
100
AcDbLine
 10
-343.7988382531053
 20
-368.7209922191481
 30
0.0
 11
-345.4238382531053
 21
-368.2855747814475
 31
0.0
  0
LINE
  5
90
330
1F
100
AcDbEntity
  8
0
100
AcDbLine
 10
-345.4238382531053
 20
-368.2855747814475
 30
0.0
 11
-347.0488382531053
 21
-368.7209922191481
 31
0.0
  0
LINE
  5
91
330
1F
100
AcDbEntity
  8
0
100
AcDbLine
 10
-348.2384208154046
 20
-369.9105747814475
 30
0.0
 11
-348.6738382531052
 21
-371.5355747814475
 31
0.0
  0
LINE
  5
92
330
1F
100
AcDbEntity
  8
0
100
AcDbLine
 10
-465.4238382531054
 20
-255.5005768034324
 30
0.0
 11
-465.4238382531054
 21
-255.5522909544752
 31
0.0
  0
LINE
  5
93
330
1F
100
AcDbEntity
  8
0
100
AcDbLine
 10
-427.7068958988795
 20
-281.3874909330486
 30
0.0
 11
-427.8542679547165
 21
-281.9374909330486
 31
0.0
  0
LINE
  5
94
330
1F
100
AcDbEntity
  8
0
100
AcDbLine
 10
-427.8542679547165
 20
-281.9374909330486
 30
0.0
 11
-428.2568958988794
 21
-282.3401188772115
 31
0.0
  0
LINE
  5
95
330
1F
100
AcDbEntity
  8
0
100
AcDbLine
 10
-429.3568958988794
 20
-282.3401188772115
 30
0.0
 11
-429.7595238430423
 21
-281.9374909330486
 31
0.0
  0
LINE
  5
96
330
1F
100
AcDbEntity
  8
0
100
AcDbLine
 10
-429.7595238430423
 20
-280.8374909330487
 30
0.0
 11
-429.3568958988794
 21
-280.4348629888858
 31
0.0
  0
LINE
  5
97
330
1F
100
AcDbEntity
  8
0
100
AcDbLine
 10
-429.3568958988794
 20
-280.4348629888858
 30
0.0
 11
-428.8068958988795
 21
-280.2874909330486
 31
0.0
  0
LINE
  5
98
330
1F
100
AcDbEntity
  8
0
100
AcDbLine
 10
-428.8068958988795
 20
-280.2874909330486
 30
0.0
 11
-428.2568958988794
 21
-280.4348629888858
 31
0.0
  0
LINE
  5
99
330
1F
100
AcDbEntity
  8
0
100
AcDbLine
 10
-428.2568958988794
 20
-280.4348629888858
 30
0.0
 11
-427.8542679547165
 21
-280.8374909330487
 31
0.0
  0
LINE
  5
9A
330
1F
100
AcDbEntity
  8
0
100
AcDbLine
 10
-427.8542679547165
 20
-280.8374909330487
 30
0.0
 11
-427.7068958988795
 21
-281.3874909330486
 31
0.0
  0
LINE
  5
9B
330
1F
100
AcDbEntity
  8
0
100
AcDbLine
 10
-381.490780607331
 20
-282.3401188772115
 30
0.0
 11
-381.0881526631682
 21
-281.9374909330486
 31
0.0
  0
LINE
  5
9C
330
1F
100
AcDbEntity
  8
0
100
AcDbLine
 10
-382.040780607331
 20
-280.2874909330486
 30
0.0
 11
-382.590780607331
 21
-280.4348629888858
 31
0.0
  0
LINE
  5
9D
330
1F
100
AcDbEntity
  8
0
100
AcDbLine
 10
-382.590780607331
 20
-280.4348629888858
 30
0.0
 11
-382.9934085514939
 21
-280.8374909330487
 31
0.0
  0
LINE
  5
9E
330
1F
100
AcDbEntity
  8
0
100
AcDbLine
 10
-382.9934085514939
 20
-280.8374909330487
 30
0.0
 11
-383.140780607331
 21
-281.3874909330486
 31
0.0
  0
LINE
  5
9F
330
1F
100
AcDbEntity
  8
0
100
AcDbLine
 10
-381.490780607331
 20
-280.4348629888858
 30
0.0
 11
-382.040780607331
 21
-280.2874909330486
 31
0.0
  0
LINE
  5
A0
330
1F
100
AcDbEntity
  8
0
100
AcDbLine
 10
-381.0881526631682
 20
-280.8374909330487
 30
0.0
 11
-381.490780607331
 21
-280.4348629888858
 31
0.0
  0
LINE
  5
A1
330
1F
100
AcDbEntity
  8
0
100
AcDbLine
 10
-382.9934085514939
 20
-281.9374909330486
 30
0.0
 11
-382.590780607331
 21
-282.3401188772115
 31
0.0
  0
LINE
  5
A2
330
1F
100
AcDbEntity
  8
0
100
AcDbLine
 10
-383.140780607331
 20
-281.3874909330486
 30
0.0
 11
-382.9934085514939
 21
-281.9374909330486
 31
0.0
  0
LINE
  5
A3
330
1F
100
AcDbEntity
  8
0
100
AcDbLine
 10
-382.590780607331
 20
-282.3401188772115
 30
0.0
 11
-382.040780607331
 21
-282.4874909330487
 31
0.0
  0
LINE
  5
A4
330
1F
100
AcDbEntity
  8
0
100
AcDbLine
 10
-381.0881526631681
 20
-342.2336586298462
 30
0.0
 11
-381.490780607331
 21
-342.636286574009
 31
0.0
  0
LINE
  5
A5
330
1F
100
AcDbEntity
  8
0
100
AcDbLine
 10
-381.490780607331
 20
-342.636286574009
 30
0.0
 11
-382.040780607331
 21
-342.7836586298462
 31
0.0
  0
LINE
  5
A6
330
1F
100
AcDbEntity
  8
0
100
AcDbLine
 10
-382.040780607331
 20
-342.7836586298462
 30
0.0
 11
-382.590780607331
 21
-342.636286574009
 31
0.0
  0
LINE
  5
A7
330
1F
100
AcDbEntity
  8
0
100
AcDbLine
 10
-382.590780607331
 20
-342.636286574009
 30
0.0
 11
-382.9934085514939
 21
-342.2336586298462
 31
0.0
  0
LINE
  5
A8
330
1F
100
AcDbEntity
  8
0
100
AcDbLine
 10
-382.9934085514939
 20
-342.2336586298462
 30
0.0
 11
-383.140780607331
 21
-341.6836586298461
 31
0.0
  0
LINE
  5
A9
330
1F
100
AcDbEntity
  8
0
100
AcDbLine
 10
-383.140780607331
 20
-341.6836586298461
 30
0.0
 11
-382.9934085514939
 21
-341.1336586298462
 31
0.0
  0
LINE
  5
AA
330
1F
100
AcDbEntity
  8
0
100
AcDbLine
 10
-382.9934085514939
 20
-341.1336586298462
 30
0.0
 11
-382.590780607331
 21
-340.7310306856833
 31
0.0
  0
LINE
  5
AB
330
1F
100
AcDbEntity
  8
0
100
AcDbLine
 10
-382.590780607331
 20
-340.7310306856833
 30
0.0
 11
-382.040780607331
 21
-340.5836586298462
 31
0.0
  0
LINE
  5
AC
330
1F
100
AcDbEntity
  8
0
100
AcDbLine
 10
-381.490780607331
 20
-340.7310306856833
 30
0.0
 11
-381.0881526631681
 21
-341.1336586298462
 31
0.0
  0
LINE
  5
AD
330
1F
100
AcDbEntity
  8
0
100
AcDbLine
 10
-381.0881526631681
 20
-341.1336586298462
 30
0.0
 11
-380.940780607331
 21
-341.6836586298461
 31
0.0
  0
LINE
  5
AE
330
1F
100
AcDbEntity
  8
0
100
AcDbLine
 10
-427.7068958988795
 20
-341.6836586298461
 30
0.0
 11
-427.8542679547165
 21
-341.1336586298462
 31
0.0
  0
LINE
  5
AF
330
1F
100
AcDbEntity
  8
0
100
AcDbLine
 10
-428.2568958988794
 20
-340.7310306856833
 30
0.0
 11
-428.8068958988795
 21
-340.5836586298462
 31
0.0
  0
LINE
  5
B0
330
1F
100
AcDbEntity
  8
0
100
AcDbLine
 10
-427.8542679547165
 20
-341.1336586298462
 30
0.0
 11
-428.2568958988794
 21
-340.7310306856833
 31
0.0
  0
LINE
  5
B1
330
1F
100
AcDbEntity
  8
0
100
AcDbLine
 10
-429.7595238430423
 20
-341.1336586298462
 30
0.0
 11
-429.9068958988794
 21
-341.6836586298461
 31
0.0
  0
LINE
  5
B2
330
1F
100
AcDbEntity
  8
0
100
AcDbLine
 10
-429.3568958988794
 20
-340.7310306856833
 30
0.0
 11
-429.7595238430423
 21
-341.1336586298462
 31
0.0
  0
LINE
  5
B3
330
1F
100
AcDbEntity
  8
0
100
AcDbLine
 10
-429.7595238430423
 20
-342.2336586298462
 30
0.0
 11
-429.3568958988794
 21
-342.636286574009
 31
0.0
  0
LINE
  5
B4
330
1F
100
AcDbEntity
  8
0
100
AcDbLine
 10
-429.3568958988794
 20
-342.636286574009
 30
0.0
 11
-428.8068958988795
 21
-342.7836586298462
 31
0.0
  0
LINE
  5
B5
330
1F
100
AcDbEntity
  8
0
100
AcDbLine
 10
-428.8068958988795
 20
-342.7836586298462
 30
0.0
 11
-428.2568958988794
 21
-342.636286574009
 31
0.0
  0
LINE
  5
B6
330
1F
100
AcDbEntity
  8
0
100
AcDbLine
 10
-427.8542679547165
 20
-342.2336586298462
 30
0.0
 11
-427.7068958988795
 21
-341.6836586298461
 31
0.0
  0
LINE
  5
B7
330
1F
100
AcDbEntity
  8
0
100
AcDbLine
 10
-428.2568958988794
 20
-342.636286574009
 30
0.0
 11
-427.8542679547165
 21
-342.2336586298462
 31
0.0
  0
LINE
  5
B8
330
1F
100
AcDbEntity
  8
0
100
AcDbLine
 10
-428.2568958988794
 20
-282.3401188772115
 30
0.0
 11
-428.8068958988795
 21
-282.4874909330487
 31
0.0
  0
LINE
  5
B9
330
1F
100
AcDbEntity
  8
0
100
AcDbLine
 10
-278.6738382531056
 20
-283.0355747814475
 30
0.0
 11
-278.6738382531056
 21
-340.0355747814475
 31
0.0
  0
LINE
  5
BA
330
1F
100
AcDbEntity
  8
0
100
AcDbLine
 10
-232.1738382531054
 20
-283.0355747814475
 30
0.0
 11
-278.6738382531056
 21
-283.0355747814475
 31
0.0
  0
LINE
  5
BB
330
1F
100
AcDbEntity
  8
0
100
AcDbLine
 10
-232.1738382531053
 20
-340.0355747814475
 30
0.0
 11
-232.1738382531054
 21
-283.0355747814475
 31
0.0
  0
LINE
  5
BC
330
1F
100
AcDbEntity
  8
0
100
AcDbLine
 10
-278.6738382531056
 20
-340.0355747814475
 30
0.0
 11
-232.1738382531053
 21
-340.0355747814475
 31
0.0
  0
LINE
  5
BD
330
1F
100
AcDbEntity
  8
0
100
AcDbLine
 10
-185.4238382531056
 20
-381.5355747814474
 30
0.0
 11
-185.4238382531056
 21
-241.5355747814474
 31
0.0
  0
LINE
  5
BE
330
1F
100
AcDbEntity
  8
0
100
AcDbLine
 10
-185.4238382531056
 20
-241.5355747814474
 30
0.0
 11
-325.4238382531055
 21
-241.5355747814475
 31
0.0
  0
LINE
  5
BF
330
1F
100
AcDbEntity
  8
0
100
AcDbLine
 10
-325.4238382531055
 20
-241.5355747814475
 30
0.0
 11
-325.4238382531051
 21
-381.5355747814475
 31
0.0
  0
LINE
  5
C0
330
1F
100
AcDbEntity
  8
0
100
AcDbLine
 10
-325.4238382531051
 20
-381.5355747814475
 30
0.0
 11
-185.4238382531056
 21
-381.5355747814474
 31
0.0
  0
LINE
  5
C1
330
1F
100
AcDbEntity
  8
0
100
AcDbLine
 10
-317.7219352919614
 20
-373.8336718203038
 30
0.0
 11
-316.2650001496884
 21
-374.674833716887
 31
0.0
  0
LINE
  5
C2
330
1F
100
AcDbEntity
  8
0
100
AcDbLine
 10
-316.2650001496884
 20
-374.674833716887
 30
0.0
 11
-314.5826763565221
 21
-374.674833716887
 31
0.0
  0
LINE
  5
C3
330
1F
100
AcDbEntity
  8
0
100
AcDbLine
 10
-314.5826763565221
 20
-374.674833716887
 30
0.0
 11
-313.1257412142492
 21
-373.8336718203037
 31
0.0
  0
LINE
  5
C4
330
1F
100
AcDbEntity
  8
0
100
AcDbLine
 10
-313.1257412142492
 20
-373.8336718203037
 30
0.0
 11
-312.2845793176659
 21
-372.3767366780306
 31
0.0
  0
LINE
  5
C5
330
1F
100
AcDbEntity
  8
0
100
AcDbLine
 10
-312.2845793176659
 20
-372.3767366780306
 30
0.0
 11
-312.2845793176659
 21
-370.6944128848642
 31
0.0
  0
LINE
  5
C6
330
1F
100
AcDbEntity
  8
0
100
AcDbLine
 10
-312.2845793176659
 20
-370.6944128848642
 30
0.0
 11
-313.1257412142492
 21
-369.2374777425912
 31
0.0
  0
LINE
  5
C7
330
1F
100
AcDbEntity
  8
0
100
AcDbLine
 10
-313.1257412142492
 20
-369.2374777425912
 30
0.0
 11
-314.5826763565221
 21
-368.3963158460081
 31
0.0
  0
LINE
  5
C8
330
1F
100
AcDbEntity
  8
0
100
AcDbLine
 10
-314.5826763565221
 20
-368.3963158460081
 30
0.0
 11
-316.2650001496884
 21
-368.3963158460082
 31
0.0
  0
LINE
  5
C9
330
1F
100
AcDbEntity
  8
0
100
AcDbLine
 10
-316.2650001496884
 20
-368.3963158460082
 30
0.0
 11
-317.7219352919614
 21
-369.2374777425914
 31
0.0
  0
LINE
  5
CA
330
1F
100
AcDbEntity
  8
0
100
AcDbLine
 10
-317.7219352919614
 20
-369.2374777425914
 30
0.0
 11
-318.5630971885445
 21
-370.6944128848645
 31
0.0
  0
LINE
  5
CB
330
1F
100
AcDbEntity
  8
0
100
AcDbLine
 10
-318.5630971885445
 20
-370.6944128848645
 30
0.0
 11
-318.5630971885445
 21
-372.3767366780308
 31
0.0
  0
LINE
  5
CC
330
1F
100
AcDbEntity
  8
0
100
AcDbLine
 10
-318.5630971885445
 20
-372.3767366780308
 30
0.0
 11
-317.7219352919614
 21
-373.8336718203038
 31
0.0
  0
LINE
  5
CD
330
1F
100
AcDbEntity
  8
0
100
AcDbLine
 10
-317.7219352919618
 20
-249.2374777425912
 30
0.0
 11
-316.2650001496888
 21
-248.3963158460081
 31
0.0
  0
LINE
  5
CE
330
1F
100
AcDbEntity
  8
0
100
AcDbLine
 10
-316.2650001496888
 20
-248.3963158460081
 30
0.0
 11
-314.5826763565224
 21
-248.3963158460082
 31
0.0
  0
LINE
  5
CF
330
1F
100
AcDbEntity
  8
0
100
AcDbLine
 10
-314.5826763565224
 20
-248.3963158460082
 30
0.0
 11
-313.1257412142492
 21
-249.2374777425914
 31
0.0
  0
LINE
  5
D0
330
1F
100
AcDbEntity
  8
0
100
AcDbLine
 10
-313.1257412142492
 20
-249.2374777425914
 30
0.0
 11
-312.2845793176663
 21
-250.6944128848645
 31
0.0
  0
LINE
  5
D1
330
1F
100
AcDbEntity
  8
0
100
AcDbLine
 10
-312.2845793176663
 20
-252.3767366780308
 30
0.0
 11
-313.1257412142495
 21
-253.8336718203038
 31
0.0
  0
LINE
  5
D2
330
1F
100
AcDbEntity
  8
0
100
AcDbLine
 10
-313.1257412142495
 20
-253.8336718203038
 30
0.0
 11
-314.5826763565224
 21
-254.6748337168869
 31
0.0
  0
LINE
  5
D3
330
1F
100
AcDbEntity
  8
0
100
AcDbLine
 10
-316.2650001496888
 20
-254.6748337168868
 30
0.0
 11
-317.7219352919618
 21
-253.8336718203036
 31
0.0
  0
LINE
  5
D4
330
1F
100
AcDbEntity
  8
0
100
AcDbLine
 10
-317.7219352919618
 20
-253.8336718203036
 30
0.0
 11
-318.5630971885449
 21
-252.3767366780305
 31
0.0
  0
LINE
  5
D5
330
1F
100
AcDbEntity
  8
0
100
AcDbLine
 10
-318.5630971885449
 20
-252.3767366780305
 30
0.0
 11
-318.5630971885449
 21
-250.6944128848642
 31
0.0
  0
LINE
  5
D6
330
1F
100
AcDbEntity
  8
0
100
AcDbLine
 10
-318.5630971885449
 20
-250.6944128848642
 30
0.0
 11
-317.7219352919618
 21
-249.2374777425912
 31
0.0
  0
LINE
  5
D7
330
1F
100
AcDbEntity
  8
0
100
AcDbLine
 10
-197.7219352919616
 20
-253.8336718203037
 30
0.0
 11
-198.5630971885448
 21
-252.3767366780307
 31
0.0
  0
LINE
  5
D8
330
1F
100
AcDbEntity
  8
0
100
AcDbLine
 10
-198.5630971885448
 20
-250.6944128848644
 30
0.0
 11
-197.721935291962
 21
-249.2374777425913
 31
0.0
  0
LINE
  5
D9
330
1F
100
AcDbEntity
  8
0
100
AcDbLine
 10
-197.721935291962
 20
-249.2374777425913
 30
0.0
 11
-196.2650001496887
 21
-248.3963158460081
 31
0.0
  0
LINE
  5
DA
330
1F
100
AcDbEntity
  8
0
100
AcDbLine
 10
-196.2650001496887
 20
-248.3963158460081
 30
0.0
 11
-194.5826763565223
 21
-248.396315846008
 31
0.0
  0
LINE
  5
DB
330
1F
100
AcDbEntity
  8
0
100
AcDbLine
 10
-194.5826763565223
 20
-248.396315846008
 30
0.0
 11
-193.1257412142494
 21
-249.2374777425911
 31
0.0
  0
LINE
  5
DC
330
1F
100
AcDbEntity
  8
0
100
AcDbLine
 10
-193.1257412142494
 20
-249.2374777425911
 30
0.0
 11
-192.2845793176662
 21
-250.6944128848641
 31
0.0
  0
LINE
  5
DD
330
1F
100
AcDbEntity
  8
0
100
AcDbLine
 10
-192.2845793176662
 20
-250.6944128848641
 30
0.0
 11
-192.2845793176662
 21
-252.3767366780304
 31
0.0
  0
LINE
  5
DE
330
1F
100
AcDbEntity
  8
0
100
AcDbLine
 10
-192.2845793176662
 20
-252.3767366780304
 30
0.0
 11
-193.125741214249
 21
-253.8336718203035
 31
0.0
  0
LINE
  5
DF
330
1F
100
AcDbEntity
  8
0
100
AcDbLine
 10
-193.125741214249
 20
-253.8336718203035
 30
0.0
 11
-194.5826763565223
 21
-254.6748337168867
 31
0.0
  0
LINE
  5
E0
330
1F
100
AcDbEntity
  8
0
100
AcDbLine
 10
-196.2650001496887
 20
-254.6748337168868
 30
0.0
 11
-197.7219352919616
 21
-253.8336718203037
 31
0.0
  0
LINE
  5
E1
330
1F
100
AcDbEntity
  8
0
100
AcDbLine
 10
-198.6738382531055
 20
-371.5355747814475
 30
0.0
 11
-198.2384208154048
 21
-373.1605747814475
 31
0.0
  0
LINE
  5
E2
330
1F
100
AcDbEntity
  8
0
100
AcDbLine
 10
-198.2384208154048
 20
-373.1605747814475
 30
0.0
 11
-197.0488382531055
 21
-374.3501573437469
 31
0.0
  0
LINE
  5
E3
330
1F
100
AcDbEntity
  8
0
100
AcDbLine
 10
-197.0488382531055
 20
-374.3501573437469
 30
0.0
 11
-195.4238382531055
 21
-374.7855747814474
 31
0.0
  0
LINE
  5
E4
330
1F
100
AcDbEntity
  8
0
100
AcDbLine
 10
-195.4238382531055
 20
-374.7855747814474
 30
0.0
 11
-193.7988382531055
 21
-374.3501573437469
 31
0.0
  0
LINE
  5
E5
330
1F
100
AcDbEntity
  8
0
100
AcDbLine
 10
-192.6092556908061
 20
-373.1605747814475
 30
0.0
 11
-192.1738382531055
 21
-371.5355747814475
 31
0.0
  0
LINE
  5
E6
330
1F
100
AcDbEntity
  8
0
100
AcDbLine
 10
-192.1738382531055
 20
-371.5355747814475
 30
0.0
 11
-192.6092556908061
 21
-369.9105747814475
 31
0.0
  0
LINE
  5
E7
330
1F
100
AcDbEntity
  8
0
100
AcDbLine
 10
-192.6092556908061
 20
-369.9105747814475
 30
0.0
 11
-193.7988382531055
 21
-368.7209922191481
 31
0.0
  0
LINE
  5
E8
330
1F
100
AcDbEntity
  8
0
100
AcDbLine
 10
-193.7988382531055
 20
-368.7209922191481
 30
0.0
 11
-195.4238382531055
 21
-368.2855747814475
 31
0.0
  0
LINE
  5
E9
330
1F
100
AcDbEntity
  8
0
100
AcDbLine
 10
-195.4238382531055
 20
-368.2855747814475
 30
0.0
 11
-197.0488382531055
 21
-368.7209922191481
 31
0.0
  0
LINE
  5
EA
330
1F
100
AcDbEntity
  8
0
100
AcDbLine
 10
-198.2384208154048
 20
-369.9105747814475
 30
0.0
 11
-198.6738382531055
 21
-371.5355747814475
 31
0.0
  0
LINE
  5
EB
330
1F
100
AcDbEntity
  8
0
100
AcDbLine
 10
-277.7068958988797
 20
-281.3874909330486
 30
0.0
 11
-277.8542679547168
 21
-281.9374909330486
 31
0.0
  0
LINE
  5
EC
330
1F
100
AcDbEntity
  8
0
100
AcDbLine
 10
-277.8542679547168
 20
-281.9374909330486
 30
0.0
 11
-278.2568958988797
 21
-282.3401188772115
 31
0.0
  0
LINE
  5
ED
330
1F
100
AcDbEntity
  8
0
100
AcDbLine
 10
-279.3568958988797
 20
-282.3401188772115
 30
0.0
 11
-279.7595238430426
 21
-281.9374909330486
 31
0.0
  0
LINE
  5
EE
330
1F
100
AcDbEntity
  8
0
100
AcDbLine
 10
-279.7595238430426
 20
-280.8374909330487
 30
0.0
 11
-279.3568958988797
 21
-280.4348629888858
 31
0.0
  0
LINE
  5
EF
330
1F
100
AcDbEntity
  8
0
100
AcDbLine
 10
-279.3568958988797
 20
-280.4348629888858
 30
0.0
 11
-278.8068958988797
 21
-280.2874909330486
 31
0.0
  0
LINE
  5
F0
330
1F
100
AcDbEntity
  8
0
100
AcDbLine
 10
-278.8068958988797
 20
-280.2874909330486
 30
0.0
 11
-278.2568958988797
 21
-280.4348629888858
 31
0.0
  0
LINE
  5
F1
330
1F
100
AcDbEntity
  8
0
100
AcDbLine
 10
-278.2568958988797
 20
-280.4348629888858
 30
0.0
 11
-277.8542679547168
 21
-280.8374909330487
 31
0.0
  0
LINE
  5
F2
330
1F
100
AcDbEntity
  8
0
100
AcDbLine
 10
-277.8542679547168
 20
-280.8374909330487
 30
0.0
 11
-277.7068958988797
 21
-281.3874909330486
 31
0.0
  0
LINE
  5
F3
330
1F
100
AcDbEntity
  8
0
100
AcDbLine
 10
-231.4907806073313
 20
-282.3401188772115
 30
0.0
 11
-231.0881526631684
 21
-281.9374909330486
 31
0.0
  0
LINE
  5
F4
330
1F
100
AcDbEntity
  8
0
100
AcDbLine
 10
-232.0407806073312
 20
-280.2874909330486
 30
0.0
 11
-232.5907806073313
 21
-280.4348629888858
 31
0.0
  0
LINE
  5
F5
330
1F
100
AcDbEntity
  8
0
100
AcDbLine
 10
-232.5907806073313
 20
-280.4348629888858
 30
0.0
 11
-232.9934085514941
 21
-280.8374909330487
 31
0.0
  0
LINE
  5
F6
330
1F
100
AcDbEntity
  8
0
100
AcDbLine
 10
-232.9934085514941
 20
-280.8374909330487
 30
0.0
 11
-233.1407806073313
 21
-281.3874909330486
 31
0.0
  0
LINE
  5
F7
330
1F
100
AcDbEntity
  8
0
100
AcDbLine
 10
-231.4907806073313
 20
-280.4348629888858
 30
0.0
 11
-232.0407806073312
 21
-280.2874909330486
 31
0.0
  0
LINE
  5
F8
330
1F
100
AcDbEntity
  8
0
100
AcDbLine
 10
-231.0881526631684
 20
-280.8374909330487
 30
0.0
 11
-231.4907806073313
 21
-280.4348629888858
 31
0.0
  0
LINE
  5
F9
330
1F
100
AcDbEntity
  8
0
100
AcDbLine
 10
-232.9934085514941
 20
-281.9374909330486
 30
0.0
 11
-232.5907806073313
 21
-282.3401188772115
 31
0.0
  0
LINE
  5
FA
330
1F
100
AcDbEntity
  8
0
100
AcDbLine
 10
-233.1407806073313
 20
-281.3874909330486
 30
0.0
 11
-232.9934085514941
 21
-281.9374909330486
 31
0.0
  0
LINE
  5
FB
330
1F
100
AcDbEntity
  8
0
100
AcDbLine
 10
-232.5907806073313
 20
-282.3401188772115
 30
0.0
 11
-232.0407806073312
 21
-282.4874909330487
 31
0.0
  0
LINE
  5
FC
330
1F
100
AcDbEntity
  8
0
100
AcDbLine
 10
-231.0881526631684
 20
-342.2336586298462
 30
0.0
 11
-231.4907806073312
 21
-342.636286574009
 31
0.0
  0
LINE
  5
FD
330
1F
100
AcDbEntity
  8
0
100
AcDbLine
 10
-231.4907806073312
 20
-342.636286574009
 30
0.0
 11
-232.0407806073312
 21
-342.7836586298462
 31
0.0
  0
LINE
  5
FE
330
1F
100
AcDbEntity
  8
0
100
AcDbLine
 10
-232.0407806073312
 20
-342.7836586298462
 30
0.0
 11
-232.5907806073313
 21
-342.636286574009
 31
0.0
  0
LINE
  5
FF
330
1F
100
AcDbEntity
  8
0
100
AcDbLine
 10
-232.5907806073313
 20
-342.636286574009
 30
0.0
 11
-232.9934085514941
 21
-342.2336586298462
 31
0.0
  0
LINE
  5
100
330
1F
100
AcDbEntity
  8
0
100
AcDbLine
 10
-232.9934085514941
 20
-342.2336586298462
 30
0.0
 11
-233.1407806073313
 21
-341.6836586298461
 31
0.0
  0
LINE
  5
101
330
1F
100
AcDbEntity
  8
0
100
AcDbLine
 10
-233.1407806073313
 20
-341.6836586298461
 30
0.0
 11
-232.9934085514941
 21
-341.1336586298462
 31
0.0
  0
LINE
  5
102
330
1F
100
AcDbEntity
  8
0
100
AcDbLine
 10
-232.9934085514941
 20
-341.1336586298462
 30
0.0
 11
-232.5907806073313
 21
-340.7310306856833
 31
0.0
  0
LINE
  5
103
330
1F
100
AcDbEntity
  8
0
100
AcDbLine
 10
-232.5907806073313
 20
-340.7310306856833
 30
0.0
 11
-232.0407806073312
 21
-340.5836586298462
 31
0.0
  0
LINE
  5
104
330
1F
100
AcDbEntity
  8
0
100
AcDbLine
 10
-231.4907806073312
 20
-340.7310306856833
 30
0.0
 11
-231.0881526631684
 21
-341.1336586298462
 31
0.0
  0
LINE
  5
105
330
1F
100
AcDbEntity
  8
0
100
AcDbLine
 10
-231.0881526631684
 20
-341.1336586298462
 30
0.0
 11
-230.9407806073313
 21
-341.6836586298461
 31
0.0
  0
LINE
  5
106
330
1F
100
AcDbEntity
  8
0
100
AcDbLine
 10
-277.7068958988796
 20
-341.6836586298461
 30
0.0
 11
-277.8542679547168
 21
-341.1336586298462
 31
0.0
  0
LINE
  5
107
330
1F
100
AcDbEntity
  8
0
100
AcDbLine
 10
-278.2568958988796
 20
-340.7310306856833
 30
0.0
 11
-278.8068958988796
 21
-340.5836586298462
 31
0.0
  0
LINE
  5
108
330
1F
100
AcDbEntity
  8
0
100
AcDbLine
 10
-277.8542679547168
 20
-341.1336586298462
 30
0.0
 11
-278.2568958988796
 21
-340.7310306856833
 31
0.0
  0
LINE
  5
109
330
1F
100
AcDbEntity
  8
0
100
AcDbLine
 10
-279.7595238430425
 20
-341.1336586298462
 30
0.0
 11
-279.9068958988797
 21
-341.6836586298461
 31
0.0
  0
LINE
  5
10A
330
1F
100
AcDbEntity
  8
0
100
AcDbLine
 10
-279.3568958988797
 20
-340.7310306856833
 30
0.0
 11
-279.7595238430425
 21
-341.1336586298462
 31
0.0
  0
LINE
  5
10B
330
1F
100
AcDbEntity
  8
0
100
AcDbLine
 10
-279.7595238430425
 20
-342.2336586298462
 30
0.0
 11
-279.3568958988797
 21
-342.636286574009
 31
0.0
  0
LINE
  5
10C
330
1F
100
AcDbEntity
  8
0
100
AcDbLine
 10
-279.3568958988797
 20
-342.636286574009
 30
0.0
 11
-278.8068958988796
 21
-342.7836586298462
 31
0.0
  0
LINE
  5
10D
330
1F
100
AcDbEntity
  8
0
100
AcDbLine
 10
-278.8068958988796
 20
-342.7836586298462
 30
0.0
 11
-278.2568958988796
 21
-342.636286574009
 31
0.0
  0
LINE
  5
10E
330
1F
100
AcDbEntity
  8
0
100
AcDbLine
 10
-277.8542679547168
 20
-342.2336586298462
 30
0.0
 11
-277.7068958988796
 21
-341.6836586298461
 31
0.0
  0
LINE
  5
10F
330
1F
100
AcDbEntity
  8
0
100
AcDbLine
 10
-278.2568958988796
 20
-342.636286574009
 30
0.0
 11
-277.8542679547168
 21
-342.2336586298462
 31
0.0
  0
LINE
  5
110
330
1F
100
AcDbEntity
  8
0
100
AcDbLine
 10
-278.2568958988797
 20
-282.3401188772115
 30
0.0
 11
-278.8068958988797
 21
-282.4874909330487
 31
0.0
  0
LINE
  5
111
330
1F
100
AcDbEntity
  8
0
100
AcDbLine
 10
-175.4238382531056
 20
-321.5355747814475
 30
0.0
 11
-175.4238382531056
 21
-381.5355747814474
 31
0.0
  0
LINE
  5
112
330
1F
100
AcDbEntity
  8
0
100
AcDbLine
 10
-35.42383825310559
 20
-381.5355747814474
 30
0.0
 11
-35.42383825310559
 21
-131.5355747814474
 31
0.0
  0
LINE
  5
113
330
1F
100
AcDbEntity
  8
0
100
AcDbLine
 10
-175.4238382531056
 20
-381.5355747814474
 30
0.0
 11
-35.42383825310559
 21
-381.5355747814474
 31
0.0
  0
LINE
  5
114
330
1F
100
AcDbEntity
  8
0
100
AcDbLine
 10
-35.42383825310559
 20
-131.5355747814474
 30
0.0
 11
-65.42383825310557
 21
-131.5355747814474
 31
0.0
  0
LINE
  5
115
330
1F
100
AcDbEntity
  8
0
100
AcDbLine
 10
-65.42383825310557
 20
-131.5355747814474
 30
0.0
 11
-175.4238382531056
 21
-321.5355747814475
 31
0.0
  0
LINE
  5
116
330
1F
100
AcDbEntity
  8
0
100
AcDbLine
 10
-82.42383825310557
 20
-301.5355747814475
 30
0.0
 11
-83.49563502283007
 21
-305.5355747814475
 31
0.0
  0
LINE
  5
117
330
1F
100
AcDbEntity
  8
0
100
AcDbLine
 10
-83.49563502283007
 20
-305.5355747814475
 30
0.0
 11
-86.42383825310559
 21
-308.4637780117229
 31
0.0
  0
LINE
  5
118
330
1F
100
AcDbEntity
  8
0
100
AcDbLine
 10
-86.42383825310559
 20
-308.4637780117229
 30
0.0
 11
-90.42383825310557
 21
-309.5355747814474
 31
0.0
  0
LINE
  5
119
330
1F
100
AcDbEntity
  8
0
100
AcDbLine
 10
-90.42383825310557
 20
-309.5355747814474
 30
0.0
 11
-94.42383825310557
 21
-308.4637780117229
 31
0.0
  0
LINE
  5
11A
330
1F
100
AcDbEntity
  8
0
100
AcDbLine
 10
-94.42383825310557
 20
-308.4637780117229
 30
0.0
 11
-97.35204148338109
 21
-305.5355747814475
 31
0.0
  0
LINE
  5
11B
330
1F
100
AcDbEntity
  8
0
100
AcDbLine
 10
-97.35204148338109
 20
-305.5355747814475
 30
0.0
 11
-98.42383825310559
 21
-301.5355747814475
 31
0.0
  0
LINE
  5
11C
330
1F
100
AcDbEntity
  8
0
100
AcDbLine
 10
-98.42383825310559
 20
-301.5355747814475
 30
0.0
 11
-97.35204148338109
 21
-297.5355747814475
 31
0.0
  0
LINE
  5
11D
330
1F
100
AcDbEntity
  8
0
100
AcDbLine
 10
-97.35204148338109
 20
-297.5355747814475
 30
0.0
 11
-94.42383825310557
 21
-294.6073715511719
 31
0.0
  0
LINE
  5
11E
330
1F
100
AcDbEntity
  8
0
100
AcDbLine
 10
-94.42383825310557
 20
-294.6073715511719
 30
0.0
 11
-90.42383825310557
 21
-293.5355747814474
 31
0.0
  0
LINE
  5
11F
330
1F
100
AcDbEntity
  8
0
100
AcDbLine
 10
-90.42383825310557
 20
-293.5355747814474
 30
0.0
 11
-86.42383825310559
 21
-294.6073715511719
 31
0.0
  0
LINE
  5
120
330
1F
100
AcDbEntity
  8
0
100
AcDbLine
 10
-86.42383825310559
 20
-294.6073715511719
 30
0.0
 11
-83.49563502283006
 21
-297.5355747814475
 31
0.0
  0
LINE
  5
121
330
1F
100
AcDbEntity
  8
0
100
AcDbLine
 10
-83.49563502283006
 20
-297.5355747814475
 30
0.0
 11
-82.42383825310557
 21
-301.5355747814475
 31
0.0
  0
LINE
  5
122
330
1F
100
AcDbEntity
  8
0
100
AcDbLine
 10
-98.42383825310559
 20
-277.5355747814475
 30
0.0
 11
-97.35204148338109
 21
-273.5355747814475
 31
0.0
  0
LINE
  5
123
330
1F
100
AcDbEntity
  8
0
100
AcDbLine
 10
-97.35204148338109
 20
-273.5355747814475
 30
0.0
 11
-94.42383825310557
 21
-270.6073715511719
 31
0.0
  0
LINE
  5
124
330
1F
100
AcDbEntity
  8
0
100
AcDbLine
 10
-94.42383825310557
 20
-270.6073715511719
 30
0.0
 11
-90.42383825310557
 21
-269.5355747814475
 31
0.0
  0
LINE
  5
125
330
1F
100
AcDbEntity
  8
0
100
AcDbLine
 10
-90.42383825310557
 20
-269.5355747814475
 30
0.0
 11
-86.42383825310559
 21
-270.6073715511719
 31
0.0
  0
LINE
  5
126
330
1F
100
AcDbEntity
  8
0
100
AcDbLine
 10
-86.42383825310559
 20
-270.6073715511719
 30
0.0
 11
-83.49563502283007
 21
-273.5355747814475
 31
0.0
  0
LINE
  5
127
330
1F
100
AcDbEntity
  8
0
100
AcDbLine
 10
-83.49563502283007
 20
-273.5355747814475
 30
0.0
 11
-82.42383825310559
 21
-277.5355747814475
 31
0.0
  0
LINE
  5
128
330
1F
100
AcDbEntity
  8
0
100
AcDbLine
 10
-82.42383825310559
 20
-277.5355747814475
 30
0.0
 11
-83.49563502283007
 21
-281.5355747814475
 31
0.0
  0
LINE
  5
129
330
1F
100
AcDbEntity
  8
0
100
AcDbLine
 10
-83.49563502283007
 20
-281.5355747814475
 30
0.0
 11
-86.42383825310559
 21
-284.4637780117229
 31
0.0
  0
LINE
  5
12A
330
1F
100
AcDbEntity
  8
0
100
AcDbLine
 10
-86.42383825310559
 20
-284.4637780117229
 30
0.0
 11
-90.42383825310557
 21
-285.5355747814474
 31
0.0
  0
LINE
  5
12B
330
1F
100
AcDbEntity
  8
0
100
AcDbLine
 10
-90.42383825310557
 20
-285.5355747814474
 30
0.0
 11
-94.42383825310557
 21
-284.4637780117229
 31
0.0
  0
LINE
  5
12C
330
1F
100
AcDbEntity
  8
0
100
AcDbLine
 10
-94.42383825310557
 20
-284.4637780117229
 30
0.0
 11
-97.35204148338109
 21
-281.5355747814475
 31
0.0
  0
LINE
  5
12D
330
1F
100
AcDbEntity
  8
0
100
AcDbLine
 10
-97.35204148338109
 20
-281.5355747814475
 30
0.0
 11
-98.42383825310559
 21
-277.5355747814475
 31
0.0
  0
LINE
  5
12E
330
1F
100
AcDbEntity
  8
0
100
AcDbLine
 10
-101.4238382531056
 20
-247.5355747814475
 30
0.0
 11
-99.9501176947344
 21
-242.0355747814474
 31
0.0
  0
LINE
  5
12F
330
1F
100
AcDbEntity
  8
0
100
AcDbLine
 10
-99.9501176947344
 20
-242.0355747814474
 30
0.0
 11
-95.92383825310559
 21
-238.0092953398186
 31
0.0
  0
LINE
  5
130
330
1F
100
AcDbEntity
  8
0
100
AcDbLine
 10
-95.92383825310559
 20
-238.0092953398186
 30
0.0
 11
-90.42383825310557
 21
-236.5355747814474
 31
0.0
  0
LINE
  5
131
330
1F
100
AcDbEntity
  8
0
100
AcDbLine
 10
-90.42383825310557
 20
-236.5355747814474
 30
0.0
 11
-84.92383825310559
 21
-238.0092953398186
 31
0.0
  0
LINE
  5
132
330
1F
100
AcDbEntity
  8
0
100
AcDbLine
 10
-84.92383825310559
 20
-238.0092953398186
 30
0.0
 11
-80.89755881147676
 21
-242.0355747814474
 31
0.0
  0
LINE
  5
133
330
1F
100
AcDbEntity
  8
0
100
AcDbLine
 10
-80.89755881147676
 20
-242.0355747814474
 30
0.0
 11
-79.42383825310559
 21
-247.5355747814475
 31
0.0
  0
LINE
  5
134
330
1F
100
AcDbEntity
  8
0
100
AcDbLine
 10
-79.42383825310559
 20
-247.5355747814475
 30
0.0
 11
-80.89755881147676
 21
-253.0355747814474
 31
0.0
  0
LINE
  5
135
330
1F
100
AcDbEntity
  8
0
100
AcDbLine
 10
-80.89755881147676
 20
-253.0355747814474
 30
0.0
 11
-84.92383825310557
 21
-257.0618542230762
 31
0.0
  0
LINE
  5
136
330
1F
100
AcDbEntity
  8
0
100
AcDbLine
 10
-84.92383825310557
 20
-257.0618542230762
 30
0.0
 11
-90.42383825310557
 21
-258.5355747814474
 31
0.0
  0
LINE
  5
137
330
1F
100
AcDbEntity
  8
0
100
AcDbLine
 10
-90.42383825310557
 20
-258.5355747814474
 30
0.0
 11
-95.92383825310559
 21
-257.0618542230762
 31
0.0
  0
LINE
  5
138
330
1F
100
AcDbEntity
  8
0
100
AcDbLine
 10
-95.92383825310559
 20
-257.0618542230762
 30
0.0
 11
-99.95011769473442
 21
-253.0355747814474
 31
0.0
  0
LINE
  5
139
330
1F
100
AcDbEntity
  8
0
100
AcDbLine
 10
-99.95011769473442
 20
-253.0355747814474
 30
0.0
 11
-101.4238382531056
 21
-247.5355747814475
 31
0.0
  0
LINE
  5
13A
330
1F
100
AcDbEntity
  8
0
100
AcDbLine
 10
-53.54883825310556
 20
-176.5355747814474
 30
0.0
 11
-53.13016763993195
 21
-174.9730747814474
 31
0.0
  0
LINE
  5
13B
330
1F
100
AcDbEntity
  8
0
100
AcDbLine
 10
-53.13016763993195
 20
-174.9730747814474
 30
0.0
 11
-51.98633825310559
 21
-173.829245394621
 31
0.0
  0
LINE
  5
13C
330
1F
100
AcDbEntity
  8
0
100
AcDbLine
 10
-51.98633825310559
 20
-173.829245394621
 30
0.0
 11
-50.42383825310558
 21
-173.4105747814474
 31
0.0
  0
LINE
  5
13D
330
1F
100
AcDbEntity
  8
0
100
AcDbLine
 10
-50.42383825310558
 20
-173.4105747814474
 30
0.0
 11
-48.86133825310557
 21
-173.829245394621
 31
0.0
  0
LINE
  5
13E
330
1F
100
AcDbEntity
  8
0
100
AcDbLine
 10
-48.86133825310557
 20
-173.829245394621
 30
0.0
 11
-47.71750886627921
 21
-174.9730747814474
 31
0.0
  0
LINE
  5
13F
330
1F
100
AcDbEntity
  8
0
100
AcDbLine
 10
-47.71750886627921
 20
-174.9730747814474
 30
0.0
 11
-47.29883825310559
 21
-176.5355747814474
 31
0.0
  0
LINE
  5
140
330
1F
100
AcDbEntity
  8
0
100
AcDbLine
 10
-47.29883825310559
 20
-176.5355747814474
 30
0.0
 11
-47.71750886627921
 21
-178.0980747814475
 31
0.0
  0
LINE
  5
141
330
1F
100
AcDbEntity
  8
0
100
AcDbLine
 10
-47.71750886627921
 20
-178.0980747814475
 30
0.0
 11
-48.86133825310557
 21
-179.2419041682738
 31
0.0
  0
LINE
  5
142
330
1F
100
AcDbEntity
  8
0
100
AcDbLine
 10
-48.86133825310557
 20
-179.2419041682738
 30
0.0
 11
-50.42383825310558
 21
-179.6605747814475
 31
0.0
  0
LINE
  5
143
330
1F
100
AcDbEntity
  8
0
100
AcDbLine
 10
-50.42383825310558
 20
-179.6605747814475
 30
0.0
 11
-51.98633825310559
 21
-179.2419041682738
 31
0.0
  0
LINE
  5
144
330
1F
100
AcDbEntity
  8
0
100
AcDbLine
 10
-51.98633825310559
 20
-179.2419041682738
 30
0.0
 11
-53.13016763993195
 21
-178.0980747814475
 31
0.0
  0
LINE
  5
145
330
1F
100
AcDbEntity
  8
0
100
AcDbLine
 10
-53.13016763993195
 20
-178.0980747814475
 30
0.0
 11
-53.54883825310556
 21
-176.5355747814474
 31
0.0
  0
LINE
  5
146
330
1F
100
AcDbEntity
  8
0
100
AcDbLine
 10
-53.54883825310556
 20
-306.5355747814475
 30
0.0
 11
-53.13016763993195
 21
-304.9730747814474
 31
0.0
  0
LINE
  5
147
330
1F
100
AcDbEntity
  8
0
100
AcDbLine
 10
-53.13016763993195
 20
-304.9730747814474
 30
0.0
 11
-51.98633825310559
 21
-303.8292453946211
 31
0.0
  0
LINE
  5
148
330
1F
100
AcDbEntity
  8
0
100
AcDbLine
 10
-51.98633825310559
 20
-303.8292453946211
 30
0.0
 11
-50.42383825310558
 21
-303.4105747814474
 31
0.0
  0
LINE
  5
149
330
1F
100
AcDbEntity
  8
0
100
AcDbLine
 10
-50.42383825310558
 20
-303.4105747814474
 30
0.0
 11
-48.86133825310557
 21
-303.8292453946211
 31
0.0
  0
LINE
  5
14A
330
1F
100
AcDbEntity
  8
0
100
AcDbLine
 10
-48.86133825310557
 20
-303.8292453946211
 30
0.0
 11
-47.71750886627921
 21
-304.9730747814474
 31
0.0
  0
LINE
  5
14B
330
1F
100
AcDbEntity
  8
0
100
AcDbLine
 10
-47.71750886627921
 20
-304.9730747814474
 30
0.0
 11
-47.29883825310559
 21
-306.5355747814475
 31
0.0
  0
LINE
  5
14C
330
1F
100
AcDbEntity
  8
0
100
AcDbLine
 10
-47.29883825310559
 20
-306.5355747814475
 30
0.0
 11
-47.71750886627921
 21
-308.0980747814475
 31
0.0
  0
LINE
  5
14D
330
1F
100
AcDbEntity
  8
0
100
AcDbLine
 10
-47.71750886627921
 20
-308.0980747814475
 30
0.0
 11
-48.86133825310557
 21
-309.2419041682738
 31
0.0
  0
LINE
  5
14E
330
1F
100
AcDbEntity
  8
0
100
AcDbLine
 10
-48.86133825310557
 20
-309.2419041682738
 30
0.0
 11
-50.42383825310558
 21
-309.6605747814475
 31
0.0
  0
LINE
  5
14F
330
1F
100
AcDbEntity
  8
0
100
AcDbLine
 10
-50.42383825310558
 20
-309.6605747814475
 30
0.0
 11
-51.98633825310559
 21
-309.2419041682738
 31
0.0
  0
LINE
  5
150
330
1F
100
AcDbEntity
  8
0
100
AcDbLine
 10
-51.98633825310559
 20
-309.2419041682738
 30
0.0
 11
-53.13016763993195
 21
-308.0980747814475
 31
0.0
  0
LINE
  5
151
330
1F
100
AcDbEntity
  8
0
100
AcDbLine
 10
-53.13016763993195
 20
-308.0980747814475
 30
0.0
 11
-53.54883825310556
 21
-306.5355747814475
 31
0.0
  0
LINE
  5
152
330
1F
100
AcDbEntity
  8
0
100
AcDbLine
 10
-163.5488382531056
 20
-336.5355747814475
 30
0.0
 11
-163.130167639932
 21
-334.9730747814475
 31
0.0
  0
LINE
  5
153
330
1F
100
AcDbEntity
  8
0
100
AcDbLine
 10
-163.130167639932
 20
-334.9730747814475
 30
0.0
 11
-161.9863382531056
 21
-333.8292453946211
 31
0.0
  0
LINE
  5
154
330
1F
100
AcDbEntity
  8
0
100
AcDbLine
 10
-161.9863382531056
 20
-333.8292453946211
 30
0.0
 11
-160.4238382531056
 21
-333.4105747814475
 31
0.0
  0
LINE
  5
155
330
1F
100
AcDbEntity
  8
0
100
AcDbLine
 10
-160.4238382531056
 20
-333.4105747814475
 30
0.0
 11
-158.8613382531056
 21
-333.8292453946211
 31
0.0
  0
LINE
  5
156
330
1F
100
AcDbEntity
  8
0
100
AcDbLine
 10
-158.8613382531056
 20
-333.8292453946211
 30
0.0
 11
-157.7175088662792
 21
-334.9730747814475
 31
0.0
  0
LINE
  5
157
330
1F
100
AcDbEntity
  8
0
100
AcDbLine
 10
-157.7175088662792
 20
-334.9730747814475
 30
0.0
 11
-157.2988382531056
 21
-336.5355747814474
 31
0.0
  0
LINE
  5
158
330
1F
100
AcDbEntity
  8
0
100
AcDbLine
 10
-93.54883825310557
 20
-336.5355747814474
 30
0.0
 11
-93.13016763993194
 21
-334.9730747814474
 31
0.0
  0
LINE
  5
159
330
1F
100
AcDbEntity
  8
0
100
AcDbLine
 10
-93.13016763993194
 20
-334.9730747814474
 30
0.0
 11
-91.98633825310559
 21
-333.8292453946211
 31
0.0
  0
LINE
  5
15A
330
1F
100
AcDbEntity
  8
0
100
AcDbLine
 10
-91.98633825310559
 20
-333.8292453946211
 30
0.0
 11
-90.42383825310557
 21
-333.4105747814475
 31
0.0
  0
LINE
  5
15B
330
1F
100
AcDbEntity
  8
0
100
AcDbLine
 10
-90.42383825310557
 20
-333.4105747814475
 30
0.0
 11
-88.86133825310557
 21
-333.8292453946211
 31
0.0
  0
LINE
  5
15C
330
1F
100
AcDbEntity
  8
0
100
AcDbLine
 10
-88.86133825310557
 20
-333.8292453946211
 30
0.0
 11
-87.7175088662792
 21
-334.9730747814474
 31
0.0
  0
LINE
  5
15D
330
1F
100
AcDbEntity
  8
0
100
AcDbLine
 10
-87.7175088662792
 20
-334.9730747814474
 30
0.0
 11
-87.29883825310557
 21
-336.5355747814474
 31
0.0
  0
LINE
  5
15E
330
1F
100
AcDbEntity
  8
0
100
AcDbLine
 10
-87.29883825310557
 20
-336.5355747814474
 30
0.0
 11
-87.7175088662792
 21
-338.0980747814474
 31
0.0
  0
LINE
  5
15F
330
1F
100
AcDbEntity
  8
0
100
AcDbLine
 10
-87.7175088662792
 20
-338.0980747814474
 30
0.0
 11
-88.86133825310557
 21
-339.2419041682738
 31
0.0
  0
LINE
  5
160
330
1F
100
AcDbEntity
  8
0
100
AcDbLine
 10
-88.86133825310557
 20
-339.2419041682738
 30
0.0
 11
-90.42383825310557
 21
-339.6605747814475
 31
0.0
  0
LINE
  5
161
330
1F
100
AcDbEntity
  8
0
100
AcDbLine
 10
-90.42383825310557
 20
-339.6605747814475
 30
0.0
 11
-91.98633825310559
 21
-339.2419041682738
 31
0.0
  0
LINE
  5
162
330
1F
100
AcDbEntity
  8
0
100
AcDbLine
 10
-91.98633825310559
 20
-339.2419041682738
 30
0.0
 11
-93.13016763993194
 21
-338.0980747814474
 31
0.0
  0
LINE
  5
163
330
1F
100
AcDbEntity
  8
0
100
AcDbLine
 10
-93.13016763993194
 20
-338.0980747814474
 30
0.0
 11
-93.54883825310557
 21
-336.5355747814474
 31
0.0
  0
LINE
  5
164
330
1F
100
AcDbEntity
  8
0
100
AcDbLine
 10
-160.4238382531056
 20
-339.6605747814475
 30
0.0
 11
-161.9863382531056
 21
-339.2419041682738
 31
0.0
  0
LINE
  5
165
330
1F
100
AcDbEntity
  8
0
100
AcDbLine
 10
-157.7175088662792
 20
-338.0980747814474
 30
0.0
 11
-158.8613382531056
 21
-339.2419041682738
 31
0.0
  0
LINE
  5
166
330
1F
100
AcDbEntity
  8
0
100
AcDbLine
 10
-161.9863382531056
 20
-339.2419041682738
 30
0.0
 11
-163.130167639932
 21
-338.0980747814474
 31
0.0
  0
LINE
  5
167
330
1F
100
AcDbEntity
  8
0
100
AcDbLine
 10
-163.130167639932
 20
-338.0980747814474
 30
0.0
 11
-163.5488382531056
 21
-336.5355747814475
 31
0.0
  0
LINE
  5
168
330
1F
100
AcDbEntity
  8
0
100
AcDbLine
 10
-158.8613382531056
 20
-339.2419041682738
 30
0.0
 11
-160.4238382531056
 21
-339.6605747814475
 31
0.0
  0
LINE
  5
169
330
1F
100
AcDbEntity
  8
0
100
AcDbLine
 10
-157.2988382531056
 20
-336.5355747814474
 30
0.0
 11
-157.7175088662792
 21
-338.0980747814474
 31
0.0
  0
LINE
  5
16A
330
1F
100
AcDbEntity
  8
0
100
AcDbLine
 10
-25.42383825310538
 20
-321.5355747814475
 30
0.0
 11
-25.42383825310538
 21
-381.5355747814474
 31
0.0
  0
LINE
  5
16B
330
1F
100
AcDbEntity
  8
0
100
AcDbLine
 10
114.5761617468946
 20
-381.5355747814474
 30
0.0
 11
114.5761617468946
 21
-131.5355747814474
 31
0.0
  0
LINE
  5
16C
330
1F
100
AcDbEntity
  8
0
100
AcDbLine
 10
-25.42383825310538
 20
-381.5355747814474
 30
0.0
 11
114.5761617468946
 21
-381.5355747814474
 31
0.0
  0
LINE
  5
16D
330
1F
100
AcDbEntity
  8
0
100
AcDbLine
 10
114.5761617468946
 20
-131.5355747814474
 30
0.0
 11
84.57616174689464
 21
-131.5355747814474
 31
0.0
  0
LINE
  5
16E
330
1F
100
AcDbEntity
  8
0
100
AcDbLine
 10
84.57616174689464
 20
-131.5355747814474
 30
0.0
 11
-25.42383825310538
 21
-321.5355747814475
 31
0.0
  0
LINE
  5
16F
330
1F
100
AcDbEntity
  8
0
100
AcDbLine
 10
67.57616174689464
 20
-301.5355747814475
 30
0.0
 11
66.50436497717016
 21
-305.5355747814475
 31
0.0
  0
LINE
  5
170
330
1F
100
AcDbEntity
  8
0
100
AcDbLine
 10
66.50436497717016
 20
-305.5355747814475
 30
0.0
 11
63.57616174689464
 21
-308.4637780117229
 31
0.0
  0
LINE
  5
171
330
1F
100
AcDbEntity
  8
0
100
AcDbLine
 10
63.57616174689464
 20
-308.4637780117229
 30
0.0
 11
59.57616174689465
 21
-309.5355747814474
 31
0.0
  0
LINE
  5
172
330
1F
100
AcDbEntity
  8
0
100
AcDbLine
 10
59.57616174689465
 20
-309.5355747814474
 30
0.0
 11
55.57616174689466
 21
-308.4637780117229
 31
0.0
  0
LINE
  5
173
330
1F
100
AcDbEntity
  8
0
100
AcDbLine
 10
55.57616174689466
 20
-308.4637780117229
 30
0.0
 11
52.64795851661913
 21
-305.5355747814475
 31
0.0
  0
LINE
  5
174
330
1F
100
AcDbEntity
  8
0
100
AcDbLine
 10
52.64795851661913
 20
-305.5355747814475
 30
0.0
 11
51.57616174689464
 21
-301.5355747814475
 31
0.0
  0
LINE
  5
175
330
1F
100
AcDbEntity
  8
0
100
AcDbLine
 10
51.57616174689464
 20
-301.5355747814475
 30
0.0
 11
52.64795851661913
 21
-297.5355747814475
 31
0.0
  0
LINE
  5
176
330
1F
100
AcDbEntity
  8
0
100
AcDbLine
 10
52.64795851661913
 20
-297.5355747814475
 30
0.0
 11
55.57616174689464
 21
-294.6073715511719
 31
0.0
  0
LINE
  5
177
330
1F
100
AcDbEntity
  8
0
100
AcDbLine
 10
55.57616174689464
 20
-294.6073715511719
 30
0.0
 11
59.57616174689465
 21
-293.5355747814474
 31
0.0
  0
LINE
  5
178
330
1F
100
AcDbEntity
  8
0
100
AcDbLine
 10
59.57616174689465
 20
-293.5355747814474
 30
0.0
 11
63.57616174689464
 21
-294.6073715511719
 31
0.0
  0
LINE
  5
179
330
1F
100
AcDbEntity
  8
0
100
AcDbLine
 10
63.57616174689464
 20
-294.6073715511719
 30
0.0
 11
66.50436497717016
 21
-297.5355747814475
 31
0.0
  0
LINE
  5
17A
330
1F
100
AcDbEntity
  8
0
100
AcDbLine
 10
66.50436497717016
 20
-297.5355747814475
 30
0.0
 11
67.57616174689464
 21
-301.5355747814475
 31
0.0
  0
LINE
  5
17B
330
1F
100
AcDbEntity
  8
0
100
AcDbLine
 10
51.57616174689464
 20
-277.5355747814475
 30
0.0
 11
52.64795851661913
 21
-273.5355747814475
 31
0.0
  0
LINE
  5
17C
330
1F
100
AcDbEntity
  8
0
100
AcDbLine
 10
52.64795851661913
 20
-273.5355747814475
 30
0.0
 11
55.57616174689464
 21
-270.6073715511719
 31
0.0
  0
LINE
  5
17D
330
1F
100
AcDbEntity
  8
0
100
AcDbLine
 10
55.57616174689464
 20
-270.6073715511719
 30
0.0
 11
59.57616174689465
 21
-269.5355747814475
 31
0.0
  0
LINE
  5
17E
330
1F
100
AcDbEntity
  8
0
100
AcDbLine
 10
59.57616174689465
 20
-269.5355747814475
 30
0.0
 11
63.57616174689464
 21
-270.6073715511719
 31
0.0
  0
LINE
  5
17F
330
1F
100
AcDbEntity
  8
0
100
AcDbLine
 10
63.57616174689464
 20
-270.6073715511719
 30
0.0
 11
66.50436497717016
 21
-273.5355747814475
 31
0.0
  0
LINE
  5
180
330
1F
100
AcDbEntity
  8
0
100
AcDbLine
 10
66.50436497717016
 20
-273.5355747814475
 30
0.0
 11
67.57616174689463
 21
-277.5355747814475
 31
0.0
  0
LINE
  5
181
330
1F
100
AcDbEntity
  8
0
100
AcDbLine
 10
67.57616174689463
 20
-277.5355747814475
 30
0.0
 11
66.50436497717016
 21
-281.5355747814475
 31
0.0
  0
LINE
  5
182
330
1F
100
AcDbEntity
  8
0
100
AcDbLine
 10
66.50436497717016
 20
-281.5355747814475
 30
0.0
 11
63.57616174689464
 21
-284.4637780117229
 31
0.0
  0
LINE
  5
183
330
1F
100
AcDbEntity
  8
0
100
AcDbLine
 10
63.57616174689464
 20
-284.4637780117229
 30
0.0
 11
59.57616174689465
 21
-285.5355747814474
 31
0.0
  0
LINE
  5
184
330
1F
100
AcDbEntity
  8
0
100
AcDbLine
 10
59.57616174689465
 20
-285.5355747814474
 30
0.0
 11
55.57616174689464
 21
-284.4637780117229
 31
0.0
  0
LINE
  5
185
330
1F
100
AcDbEntity
  8
0
100
AcDbLine
 10
55.57616174689464
 20
-284.4637780117229
 30
0.0
 11
52.64795851661913
 21
-281.5355747814475
 31
0.0
  0
LINE
  5
186
330
1F
100
AcDbEntity
  8
0
100
AcDbLine
 10
52.64795851661913
 20
-281.5355747814475
 30
0.0
 11
51.57616174689464
 21
-277.5355747814475
 31
0.0
  0
LINE
  5
187
330
1F
100
AcDbEntity
  8
0
100
AcDbLine
 10
48.57616174689465
 20
-247.5355747814475
 30
0.0
 11
50.04988230526583
 21
-242.0355747814474
 31
0.0
  0
LINE
  5
188
330
1F
100
AcDbEntity
  8
0
100
AcDbLine
 10
50.04988230526583
 20
-242.0355747814474
 30
0.0
 11
54.07616174689463
 21
-238.0092953398186
 31
0.0
  0
LINE
  5
189
330
1F
100
AcDbEntity
  8
0
100
AcDbLine
 10
54.07616174689463
 20
-238.0092953398186
 30
0.0
 11
59.57616174689465
 21
-236.5355747814474
 31
0.0
  0
LINE
  5
18A
330
1F
100
AcDbEntity
  8
0
100
AcDbLine
 10
59.57616174689465
 20
-236.5355747814474
 30
0.0
 11
65.07616174689464
 21
-238.0092953398186
 31
0.0
  0
LINE
  5
18B
330
1F
100
AcDbEntity
  8
0
100
AcDbLine
 10
65.07616174689464
 20
-238.0092953398186
 30
0.0
 11
69.10244118852346
 21
-242.0355747814474
 31
0.0
  0
LINE
  5
18C
330
1F
100
AcDbEntity
  8
0
100
AcDbLine
 10
69.10244118852346
 20
-242.0355747814474
 30
0.0
 11
70.57616174689464
 21
-247.5355747814475
 31
0.0
  0
LINE
  5
18D
330
1F
100
AcDbEntity
  8
0
100
AcDbLine
 10
70.57616174689464
 20
-247.5355747814475
 30
0.0
 11
69.10244118852346
 21
-253.0355747814474
 31
0.0
  0
LINE
  5
18E
330
1F
100
AcDbEntity
  8
0
100
AcDbLine
 10
69.10244118852346
 20
-253.0355747814474
 30
0.0
 11
65.07616174689466
 21
-257.0618542230762
 31
0.0
  0
LINE
  5
18F
330
1F
100
AcDbEntity
  8
0
100
AcDbLine
 10
65.07616174689466
 20
-257.0618542230762
 30
0.0
 11
59.57616174689465
 21
-258.5355747814474
 31
0.0
  0
LINE
  5
190
330
1F
100
AcDbEntity
  8
0
100
AcDbLine
 10
59.57616174689465
 20
-258.5355747814474
 30
0.0
 11
54.07616174689463
 21
-257.0618542230762
 31
0.0
  0
LINE
  5
191
330
1F
100
AcDbEntity
  8
0
100
AcDbLine
 10
54.07616174689463
 20
-257.0618542230762
 30
0.0
 11
50.04988230526581
 21
-253.0355747814474
 31
0.0
  0
LINE
  5
192
330
1F
100
AcDbEntity
  8
0
100
AcDbLine
 10
50.04988230526581
 20
-253.0355747814474
 30
0.0
 11
48.57616174689465
 21
-247.5355747814475
 31
0.0
  0
LINE
  5
193
330
1F
100
AcDbEntity
  8
0
100
AcDbLine
 10
96.45116174689466
 20
-176.5355747814474
 30
0.0
 11
96.86983236006827
 21
-174.9730747814474
 31
0.0
  0
LINE
  5
194
330
1F
100
AcDbEntity
  8
0
100
AcDbLine
 10
96.86983236006827
 20
-174.9730747814474
 30
0.0
 11
98.01366174689464
 21
-173.829245394621
 31
0.0
  0
LINE
  5
195
330
1F
100
AcDbEntity
  8
0
100
AcDbLine
 10
98.01366174689464
 20
-173.829245394621
 30
0.0
 11
99.57616174689464
 21
-173.4105747814474
 31
0.0
  0
LINE
  5
196
330
1F
100
AcDbEntity
  8
0
100
AcDbLine
 10
99.57616174689464
 20
-173.4105747814474
 30
0.0
 11
101.1386617468946
 21
-173.829245394621
 31
0.0
  0
LINE
  5
197
330
1F
100
AcDbEntity
  8
0
100
AcDbLine
 10
101.1386617468946
 20
-173.829245394621
 30
0.0
 11
102.282491133721
 21
-174.9730747814474
 31
0.0
  0
LINE
  5
198
330
1F
100
AcDbEntity
  8
0
100
AcDbLine
 10
102.282491133721
 20
-174.9730747814474
 30
0.0
 11
102.7011617468946
 21
-176.5355747814474
 31
0.0
  0
LINE
  5
199
330
1F
100
AcDbEntity
  8
0
100
AcDbLine
 10
102.7011617468946
 20
-176.5355747814474
 30
0.0
 11
102.282491133721
 21
-178.0980747814475
 31
0.0
  0
LINE
  5
19A
330
1F
100
AcDbEntity
  8
0
100
AcDbLine
 10
102.282491133721
 20
-178.0980747814475
 30
0.0
 11
101.1386617468946
 21
-179.2419041682738
 31
0.0
  0
LINE
  5
19B
330
1F
100
AcDbEntity
  8
0
100
AcDbLine
 10
101.1386617468946
 20
-179.2419041682738
 30
0.0
 11
99.57616174689464
 21
-179.6605747814475
 31
0.0
  0
LINE
  5
19C
330
1F
100
AcDbEntity
  8
0
100
AcDbLine
 10
99.57616174689464
 20
-179.6605747814475
 30
0.0
 11
98.01366174689464
 21
-179.2419041682738
 31
0.0
  0
LINE
  5
19D
330
1F
100
AcDbEntity
  8
0
100
AcDbLine
 10
98.01366174689464
 20
-179.2419041682738
 30
0.0
 11
96.86983236006827
 21
-178.0980747814475
 31
0.0
  0
LINE
  5
19E
330
1F
100
AcDbEntity
  8
0
100
AcDbLine
 10
96.86983236006827
 20
-178.0980747814475
 30
0.0
 11
96.45116174689466
 21
-176.5355747814474
 31
0.0
  0
LINE
  5
19F
330
1F
100
AcDbEntity
  8
0
100
AcDbLine
 10
96.45116174689466
 20
-306.5355747814475
 30
0.0
 11
96.86983236006827
 21
-304.9730747814474
 31
0.0
  0
LINE
  5
1A0
330
1F
100
AcDbEntity
  8
0
100
AcDbLine
 10
96.86983236006827
 20
-304.9730747814474
 30
0.0
 11
98.01366174689464
 21
-303.8292453946211
 31
0.0
  0
LINE
  5
1A1
330
1F
100
AcDbEntity
  8
0
100
AcDbLine
 10
98.01366174689464
 20
-303.8292453946211
 30
0.0
 11
99.57616174689464
 21
-303.4105747814474
 31
0.0
  0
LINE
  5
1A2
330
1F
100
AcDbEntity
  8
0
100
AcDbLine
 10
99.57616174689464
 20
-303.4105747814474
 30
0.0
 11
101.1386617468946
 21
-303.8292453946211
 31
0.0
  0
LINE
  5
1A3
330
1F
100
AcDbEntity
  8
0
100
AcDbLine
 10
101.1386617468946
 20
-303.8292453946211
 30
0.0
 11
102.282491133721
 21
-304.9730747814474
 31
0.0
  0
LINE
  5
1A4
330
1F
100
AcDbEntity
  8
0
100
AcDbLine
 10
102.282491133721
 20
-304.9730747814474
 30
0.0
 11
102.7011617468946
 21
-306.5355747814475
 31
0.0
  0
LINE
  5
1A5
330
1F
100
AcDbEntity
  8
0
100
AcDbLine
 10
102.7011617468946
 20
-306.5355747814475
 30
0.0
 11
102.282491133721
 21
-308.0980747814475
 31
0.0
  0
LINE
  5
1A6
330
1F
100
AcDbEntity
  8
0
100
AcDbLine
 10
102.282491133721
 20
-308.0980747814475
 30
0.0
 11
101.1386617468946
 21
-309.2419041682738
 31
0.0
  0
LINE
  5
1A7
330
1F
100
AcDbEntity
  8
0
100
AcDbLine
 10
101.1386617468946
 20
-309.2419041682738
 30
0.0
 11
99.57616174689464
 21
-309.6605747814475
 31
0.0
  0
LINE
  5
1A8
330
1F
100
AcDbEntity
  8
0
100
AcDbLine
 10
99.57616174689464
 20
-309.6605747814475
 30
0.0
 11
98.01366174689464
 21
-309.2419041682738
 31
0.0
  0
LINE
  5
1A9
330
1F
100
AcDbEntity
  8
0
100
AcDbLine
 10
98.01366174689464
 20
-309.2419041682738
 30
0.0
 11
96.86983236006827
 21
-308.0980747814475
 31
0.0
  0
LINE
  5
1AA
330
1F
100
AcDbEntity
  8
0
100
AcDbLine
 10
96.86983236006827
 20
-308.0980747814475
 30
0.0
 11
96.45116174689466
 21
-306.5355747814475
 31
0.0
  0
LINE
  5
1AB
330
1F
100
AcDbEntity
  8
0
100
AcDbLine
 10
-13.54883825310538
 20
-336.5355747814475
 30
0.0
 11
-13.13016763993175
 21
-334.9730747814475
 31
0.0
  0
LINE
  5
1AC
330
1F
100
AcDbEntity
  8
0
100
AcDbLine
 10
-13.13016763993175
 20
-334.9730747814475
 30
0.0
 11
-11.98633825310539
 21
-333.8292453946211
 31
0.0
  0
LINE
  5
1AD
330
1F
100
AcDbEntity
  8
0
100
AcDbLine
 10
-11.98633825310539
 20
-333.8292453946211
 30
0.0
 11
-10.42383825310538
 21
-333.4105747814475
 31
0.0
  0
LINE
  5
1AE
330
1F
100
AcDbEntity
  8
0
100
AcDbLine
 10
-10.42383825310538
 20
-333.4105747814475
 30
0.0
 11
-8.861338253105387
 21
-333.8292453946211
 31
0.0
  0
LINE
  5
1AF
330
1F
100
AcDbEntity
  8
0
100
AcDbLine
 10
-8.861338253105387
 20
-333.8292453946211
 30
0.0
 11
-7.717508866279011
 21
-334.9730747814475
 31
0.0
  0
LINE
  5
1B0
330
1F
100
AcDbEntity
  8
0
100
AcDbLine
 10
-7.717508866279011
 20
-334.9730747814475
 30
0.0
 11
-7.298838253105382
 21
-336.5355747814474
 31
0.0
  0
LINE
  5
1B1
330
1F
100
AcDbEntity
  8
0
100
AcDbLine
 10
56.45116174689465
 20
-336.5355747814474
 30
0.0
 11
56.86983236006827
 21
-334.9730747814474
 31
0.0
  0
LINE
  5
1B2
330
1F
100
AcDbEntity
  8
0
100
AcDbLine
 10
56.86983236006827
 20
-334.9730747814474
 30
0.0
 11
58.01366174689464
 21
-333.8292453946211
 31
0.0
  0
LINE
  5
1B3
330
1F
100
AcDbEntity
  8
0
100
AcDbLine
 10
58.01366174689464
 20
-333.8292453946211
 30
0.0
 11
59.57616174689465
 21
-333.4105747814475
 31
0.0
  0
LINE
  5
1B4
330
1F
100
AcDbEntity
  8
0
100
AcDbLine
 10
59.57616174689465
 20
-333.4105747814475
 30
0.0
 11
61.13866174689466
 21
-333.8292453946211
 31
0.0
  0
LINE
  5
1B5
330
1F
100
AcDbEntity
  8
0
100
AcDbLine
 10
61.13866174689466
 20
-333.8292453946211
 30
0.0
 11
62.28249113372102
 21
-334.9730747814474
 31
0.0
  0
LINE
  5
1B6
330
1F
100
AcDbEntity
  8
0
100
AcDbLine
 10
62.28249113372102
 20
-334.9730747814474
 30
0.0
 11
62.70116174689465
 21
-336.5355747814474
 31
0.0
  0
LINE
  5
1B7
330
1F
100
AcDbEntity
  8
0
100
AcDbLine
 10
62.70116174689465
 20
-336.5355747814474
 30
0.0
 11
62.28249113372102
 21
-338.0980747814474
 31
0.0
  0
LINE
  5
1B8
330
1F
100
AcDbEntity
  8
0
100
AcDbLine
 10
62.28249113372102
 20
-338.0980747814474
 30
0.0
 11
61.13866174689466
 21
-339.2419041682738
 31
0.0
  0
LINE
  5
1B9
330
1F
100
AcDbEntity
  8
0
100
AcDbLine
 10
61.13866174689466
 20
-339.2419041682738
 30
0.0
 11
59.57616174689465
 21
-339.6605747814475
 31
0.0
  0
LINE
  5
1BA
330
1F
100
AcDbEntity
  8
0
100
AcDbLine
 10
59.57616174689465
 20
-339.6605747814475
 30
0.0
 11
58.01366174689464
 21
-339.2419041682738
 31
0.0
  0
LINE
  5
1BB
330
1F
100
AcDbEntity
  8
0
100
AcDbLine
 10
58.01366174689464
 20
-339.2419041682738
 30
0.0
 11
56.86983236006827
 21
-338.0980747814474
 31
0.0
  0
LINE
  5
1BC
330
1F
100
AcDbEntity
  8
0
100
AcDbLine
 10
56.86983236006827
 20
-338.0980747814474
 30
0.0
 11
56.45116174689465
 21
-336.5355747814474
 31
0.0
  0
LINE
  5
1BD
330
1F
100
AcDbEntity
  8
0
100
AcDbLine
 10
-10.42383825310538
 20
-339.6605747814475
 30
0.0
 11
-11.98633825310539
 21
-339.2419041682738
 31
0.0
  0
LINE
  5
1BE
330
1F
100
AcDbEntity
  8
0
100
AcDbLine
 10
-7.717508866279011
 20
-338.0980747814474
 30
0.0
 11
-8.861338253105377
 21
-339.2419041682738
 31
0.0
  0
LINE
  5
1BF
330
1F
100
AcDbEntity
  8
0
100
AcDbLine
 10
-11.98633825310539
 20
-339.2419041682738
 30
0.0
 11
-13.13016763993175
 21
-338.0980747814474
 31
0.0
  0
LINE
  5
1C0
330
1F
100
AcDbEntity
  8
0
100
AcDbLine
 10
-13.13016763993175
 20
-338.0980747814474
 30
0.0
 11
-13.54883825310538
 21
-336.5355747814475
 31
0.0
  0
LINE
  5
1C1
330
1F
100
AcDbEntity
  8
0
100
AcDbLine
 10
-8.861338253105377
 20
-339.2419041682738
 30
0.0
 11
-10.42383825310538
 21
-339.6605747814475
 31
0.0
  0
LINE
  5
1C2
330
1F
100
AcDbEntity
  8
0
100
AcDbLine
 10
-7.298838253105382
 20
-336.5355747814474
 30
0.0
 11
-7.717508866279011
 21
-338.0980747814474
 31
0.0
  0
LINE
  5
1C3
330
1F
100
AcDbEntity
  8
0
100
AcDbLine
 10
-343.7988382531053
 20
-374.3501573437469
 30
0.0
 11
-342.6092556908059
 21
-373.1605747814475
 31
0.0
  0
LINE
  5
1C4
330
1F
100
AcDbEntity
  8
0
100
AcDbLine
 10
-347.0488382531053
 20
-368.7209922191481
 30
0.0
 11
-348.2384208154046
 21
-369.9105747814475
 31
0.0
  0
LINE
  5
1C5
330
1F
100
AcDbEntity
  8
0
100
AcDbLine
 10
-348.5630971885445
 20
-252.3767366780307
 30
0.0
 11
-348.5630971885445
 21
-250.6944128848644
 31
0.0
  0
LINE
  5
1C6
330
1F
100
AcDbEntity
  8
0
100
AcDbLine
 10
-344.582676356522
 20
-254.6748337168867
 30
0.0
 11
-346.2650001496884
 21
-254.6748337168868
 31
0.0
  0
LINE
  5
1C7
330
1F
100
AcDbEntity
  8
0
100
AcDbLine
 10
-462.2845793176661
 20
-250.6944128848645
 30
0.0
 11
-462.2845793176661
 21
-252.3767366780308
 31
0.0
  0
LINE
  5
1C8
330
1F
100
AcDbEntity
  8
0
100
AcDbLine
 10
-464.5826763565222
 20
-254.6748337168869
 30
0.0
 11
-466.2650001496885
 21
-254.6748337168868
 31
0.0
  0
LINE
  5
1C9
330
1F
100
AcDbEntity
  8
0
100
AcDbLine
 10
-429.7595238430423
 20
-281.9374909330486
 30
0.0
 11
-429.9068958988795
 21
-281.3874909330486
 31
0.0
  0
LINE
  5
1CA
330
1F
100
AcDbEntity
  8
0
100
AcDbLine
 10
-429.9068958988795
 20
-281.3874909330486
 30
0.0
 11
-429.7595238430423
 21
-280.8374909330487
 31
0.0
  0
LINE
  5
1CB
330
1F
100
AcDbEntity
  8
0
100
AcDbLine
 10
-429.3568958988794
 20
-282.3401188772115
 30
0.0
 11
-428.8068958988795
 21
-282.4874909330487
 31
0.0
  0
LINE
  5
1CC
330
1F
100
AcDbEntity
  8
0
100
AcDbLine
 10
-381.490780607331
 20
-282.3401188772115
 30
0.0
 11
-382.040780607331
 21
-282.4874909330487
 31
0.0
  0
LINE
  5
1CD
330
1F
100
AcDbEntity
  8
0
100
AcDbLine
 10
-381.0881526631682
 20
-281.9374909330486
 30
0.0
 11
-380.940780607331
 21
-281.3874909330486
 31
0.0
  0
LINE
  5
1CE
330
1F
100
AcDbEntity
  8
0
100
AcDbLine
 10
-380.940780607331
 20
-281.3874909330486
 30
0.0
 11
-381.0881526631682
 21
-280.8374909330487
 31
0.0
  0
LINE
  5
1CF
330
1F
100
AcDbEntity
  8
0
100
AcDbLine
 10
-380.940780607331
 20
-341.6836586298461
 30
0.0
 11
-381.0881526631681
 21
-342.2336586298462
 31
0.0
  0
LINE
  5
1D0
330
1F
100
AcDbEntity
  8
0
100
AcDbLine
 10
-382.040780607331
 20
-340.5836586298462
 30
0.0
 11
-381.490780607331
 21
-340.7310306856833
 31
0.0
  0
LINE
  5
1D1
330
1F
100
AcDbEntity
  8
0
100
AcDbLine
 10
-428.8068958988795
 20
-340.5836586298462
 30
0.0
 11
-429.3568958988794
 21
-340.7310306856833
 31
0.0
  0
LINE
  5
1D2
330
1F
100
AcDbEntity
  8
0
100
AcDbLine
 10
-429.9068958988794
 20
-341.6836586298461
 30
0.0
 11
-429.7595238430423
 21
-342.2336586298462
 31
0.0
  0
LINE
  5
1D3
330
1F
100
AcDbEntity
  8
0
100
AcDbLine
 10
-193.7988382531055
 20
-374.3501573437469
 30
0.0
 11
-192.6092556908061
 21
-373.1605747814475
 31
0.0
  0
LINE
  5
1D4
330
1F
100
AcDbEntity
  8
0
100
AcDbLine
 10
-197.0488382531055
 20
-368.7209922191481
 30
0.0
 11
-198.2384208154048
 21
-369.9105747814475
 31
0.0
  0
LINE
  5
1D5
330
1F
100
AcDbEntity
  8
0
100
AcDbLine
 10
-198.5630971885448
 20
-252.3767366780307
 30
0.0
 11
-198.5630971885448
 21
-250.6944128848644
 31
0.0
  0
LINE
  5
1D6
330
1F
100
AcDbEntity
  8
0
100
AcDbLine
 10
-194.5826763565223
 20
-254.6748337168867
 30
0.0
 11
-196.2650001496887
 21
-254.6748337168868
 31
0.0
  0
LINE
  5
1D7
330
1F
100
AcDbEntity
  8
0
100
AcDbLine
 10
-312.2845793176663
 20
-250.6944128848645
 30
0.0
 11
-312.2845793176663
 21
-252.3767366780308
 31
0.0
  0
LINE
  5
1D8
330
1F
100
AcDbEntity
  8
0
100
AcDbLine
 10
-314.5826763565224
 20
-254.6748337168869
 30
0.0
 11
-316.2650001496888
 21
-254.6748337168868
 31
0.0
  0
LINE
  5
1D9
330
1F
100
AcDbEntity
  8
0
100
AcDbLine
 10
-279.7595238430426
 20
-281.9374909330486
 30
0.0
 11
-279.9068958988797
 21
-281.3874909330486
 31
0.0
  0
LINE
  5
1DA
330
1F
100
AcDbEntity
  8
0
100
AcDbLine
 10
-279.9068958988797
 20
-281.3874909330486
 30
0.0
 11
-279.7595238430426
 21
-280.8374909330487
 31
0.0
  0
LINE
  5
1DB
330
1F
100
AcDbEntity
  8
0
100
AcDbLine
 10
-279.3568958988797
 20
-282.3401188772115
 30
0.0
 11
-278.8068958988797
 21
-282.4874909330487
 31
0.0
  0
LINE
  5
1DC
330
1F
100
AcDbEntity
  8
0
100
AcDbLine
 10
-231.4907806073313
 20
-282.3401188772115
 30
0.0
 11
-232.0407806073312
 21
-282.4874909330487
 31
0.0
  0
LINE
  5
1DD
330
1F
100
AcDbEntity
  8
0
100
AcDbLine
 10
-231.0881526631684
 20
-281.9374909330486
 30
0.0
 11
-230.9407806073313
 21
-281.3874909330486
 31
0.0
  0
LINE
  5
1DE
330
1F
100
AcDbEntity
  8
0
100
AcDbLine
 10
-230.9407806073313
 20
-281.3874909330486
 30
0.0
 11
-231.0881526631684
 21
-280.8374909330487
 31
0.0
  0
LINE
  5
1DF
330
1F
100
AcDbEntity
  8
0
100
AcDbLine
 10
-230.9407806073313
 20
-341.6836586298461
 30
0.0
 11
-231.0881526631684
 21
-342.2336586298462
 31
0.0
  0
LINE
  5
1E0
330
1F
100
AcDbEntity
  8
0
100
AcDbLine
 10
-232.0407806073312
 20
-340.5836586298462
 30
0.0
 11
-231.4907806073312
 21
-340.7310306856833
 31
0.0
  0
LINE
  5
1E1
330
1F
100
AcDbEntity
  8
0
100
AcDbLine
 10
-278.8068958988796
 20
-340.5836586298462
 30
0.0
 11
-279.3568958988797
 21
-340.7310306856833
 31
0.0
  0
LINE
  5
1E2
330
1F
100
AcDbEntity
  8
0
100
AcDbLine
 10
-279.9068958988797
 20
-341.6836586298461
 30
0.0
 11
-279.7595238430425
 21
-342.2336586298462
 31
0.0
  0
ENDSEC
  0
SECTION
  2
OBJECTS
  0
DICTIONARY
  5
C
330
0
100
AcDbDictionary
  3
ACAD_GROUP
350
D
  3
ACAD_LAYOUT
350
1A
  3
ACAD_MATERIAL
350
43
  3
ACAD_MLEADERSTYLE
350
5B
  3
ACAD_MLINESTYLE
350
17
  3
ACAD_PLOTSETTINGS
350
19
  3
ACAD_SCALELIST
350
47
  3
ACAD_VISUALSTYLE
350
2A
  3
ACDBHEADERROUNDTRIPXREC
350
1E3
  3
ACDBVARIABLEDICTIONARY
350
204
  3
DWGPROPS
350
20B
  0
DICTIONARY
  5
20C
330
8
100
AcDbDictionary
280
     1
  3
ACAD_XREC_ROUNDTRIP
360
20D
  0
DICTIONARY
  5
D
102
{ACAD_REACTORS
330
C
102
}
330
C
100
AcDbDictionary
  0
DICTIONARY
  5
1A
102
{ACAD_REACTORS
330
C
102
}
330
C
100
AcDbDictionary
  0
DICTIONARY
  5
43
102
{ACAD_REACTORS
330
C
102
}
330
C
100
AcDbDictionary
  3
BYBLOCK
350
45
  3
BYLAYER
350
44
  3
GLOBAL
350
46
  0
DICTIONARY
  5
5B
102
{ACAD_REACTORS
330
C
102
}
330
C
100
AcDbDictionary
  3
STANDARD
350
5C
  0
DICTIONARY
  5
17
102
{ACAD_REACTORS
330
C
102
}
330
C
100
AcDbDictionary
  3
STANDARD
350
18
  0
DICTIONARY
  5
19
102
{ACAD_REACTORS
330
C
102
}
330
C
100
AcDbDictionary
  0
DICTIONARY
  5
47
102
{ACAD_REACTORS
330
C
102
}
330
C
100
AcDbDictionary
  3
A0
350
48
  3
A1
350
49
  3
A2
350
4A
  3
A3
350
4B
  3
A4
350
4C
  3
A5
350
4D
  3
A6
350
4E
  3
A7
350
4F
  3
A8
350
50
  3
A9
350
51
  3
B1
350
52
  3
B2
350
53
  3
B3
350
54
  3
B4
350
55
  3
B5
350
56
  3
B6
350
57
  3
B7
350
58
  0
DICTIONARY
  5
2A
102
{ACAD_REACTORS
330
C
102
}
330
C
100
AcDbDictionary
  3
2DWIREFRAME
350
2F
  3
BASIC
350
32
  3
BRIGHTEN
350
36
  3
COLORCHANGE
350
3A
  3
CONCEPTUAL
350
34
  3
DIM
350
35
  3
EDGECOLOROFF
350
3D
  3
FACEPATTERN
350
39
  3
FLAT
350
2B
  3
FLATWITHEDGES
350
2C
  3
GOURAUD
350
2D
  3
GOURAUDWITHEDGES
350
2E
  3
HIDDEN
350
31
  3
JITTEROFF
350
3B
  3
LINEPATTERN
350
38
  3
OVERHANGOFF
350
3C
  3
REALISTIC
350
33
  3
SHADED
350
42
  3
SHADED_WITH_EDGES
350
41
  3
SHADES_OF_GRAY
350
3E
  3
SKETCHY
350
3F
  3
THICKEN
350
37
  3
WIREFRAME
350
30
  3
X-RAY
350
40
  0
DICTIONARY
  5
1E3
102
{ACAD_REACTORS
330
C
102
}
330
C
100
AcDbDictionary
  3
CEPSNID
350
1ED
  3
CEPSNTYPE
350
1EC
  3
DIMSTYLEDATA
350
203
  3
FINGERPRINTGUID
350
1EE
  3
HYPERLINKBASE
350
1E6
  3
INSUNITS
350
1EB
  3
LAYOUTDICT
350
1E8
  3
LWETCUNION
350
1EA
  3
PLOTSETDICT
350
1E9
  3
PSVPSCALE
350
1F0
  3
PUCSBASE
350
1F3
  3
PUCSORGBACK
350
1F9
  3
PUCSORGBOTTOM
350
1F5
  3
PUCSORGFRONT
350
1F8
  3
PUCSORGLEFT
350
1F6
  3
PUCSORGRIGHT
350
1F7
  3
PUCSORGTOP
350
1F4
  3
PUCSORTHOREF
350
1F1
  3
PUCSORTHOVIEW
350
1F2
  3
STYLESHEET
350
1E7
  3
TSTACKALIGN
350
1E4
  3
TSTACKSIZE
350
1E5
  3
UCSBASE
350
1FC
  3
UCSORGBACK
350
202
  3
UCSORGBOTTOM
350
1FE
  3
UCSORGFRONT
350
201
  3
UCSORGLEFT
350
1FF
  3
UCSORGRIGHT
350
200
  3
UCSORGTOP
350
1FD
  3
UCSORTHOREF
350
1FA
  3
UCSORTHOVIEW
350
1FB
  3
VERSIONGUID
350
1EF
  0
DICTIONARY
  5
204
102
{ACAD_REACTORS
330
C
102
}
330
C
100
AcDbDictionary
  3
CANNOSCALE
350
20E
  3
CMLEADERSTYLE
350
206
  3
CTABLESTYLE
350
205
  3
DIMASSOC
350
209
  3
HIDETEXT
350
20A
  3
MSLTSCALE
350
20F
  0
XRECORD
  5
20B
102
{ACAD_REACTORS
330
C
102
}
330
C
100
AcDbXrecord
  1
DWGPROPS COOKIE
  2

  3

  4

  6

  7

  8
fdsw2
  9

300
=
301
=
302
=
303
=
304
=
305
=
306
=
307
=
308
=
309
=
 40
0.0
 41
2460947.596329537
 42
2460947.5963297
  1

 90
        0
  0
XRECORD
  5
20D
102
{ACAD_REACTORS
330
20C
102
}
330
20C
100
AcDbXrecord
102
VTR_0.000_0.000_1.000_1.000_VISUALSTYLE
340
2F
102
VTR_0.000_0.000_1.000_1.000_GRIDDISPLAY
 70
     3
102
VTR_0.000_0.000_1.000_1.000_GRIDMAJOR
 70
     5
102
VTR_0.000_0.000_1.000_1.000_DEFAULTLIGHTING
280
     1
102
VTR_0.000_0.000_1.000_1.000_DEFAULTLIGHTINGTYPE
 70
     1
102
VTR_0.000_0.000_1.000_1.000_BRIGHTNESS
141
0.0
102
VTR_0.000_0.000_1.000_1.000_CONTRAST
142
0.0
  0
MATERIAL
  5
45
102
{ACAD_REACTORS
330
43
102
}
102
{ACAD_XDICTIONARY
360
212
102
}
330
43
100
AcDbMaterial
  1
BYBLOCK
  0
MATERIAL
  5
44
102
{ACAD_REACTORS
330
43
102
}
102
{ACAD_XDICTIONARY
360
210
102
}
330
43
100
AcDbMaterial
  1
BYLAYER
  0
MATERIAL
  5
46
102
{ACAD_REACTORS
330
43
102
}
102
{ACAD_XDICTIONARY
360
214
102
}
330
43
100
AcDbMaterial
  1
GLOBAL
  0
ACAD_PROXY_OBJECT
  5
5C
102
{ACAD_REACTORS
330
5B
102
}
330
5B
100
AcDbProxyObject
 90
      499
 91
      505
 93
      610
310
40901902A4063FBFFFFFE056BD1B81E855B9FC0AD7A3703D0AD73F4214DD185B99185C9900AD7A3703D0AC73F90141901A02B5E8DC0F42B1CFC02B5E8DC0F42B1CFE5764000000000000300FC0
340
14
340
0
340
11
340
0
 94
        0
1001
ACAD_MLEADERVER
1070
     2
  0
MLINESTYLE
  5
18
102
{ACAD_REACTORS
330
17
102
}
330
17
100
AcDbMlineStyle
  2
Standard
 70
     0
  3

 62
   256
 51
90.0
 52
90.0
 71
     2
 49
0.5
 62
   256
  6
BYLAYER
 49
-0.5
 62
   256
  6
BYLAYER
  0
ACAD_PROXY_OBJECT
  5
48
102
{ACAD_REACTORS
330
47
102
}
330
47
100
AcDbProxyObject
 90
      499
 91
      503
 93
       41
310
903313A31580
  0
ACAD_PROXY_OBJECT
  5
49
102
{ACAD_REACTORS
330
47
102
}
330
47
100
AcDbProxyObject
 90
      499
 91
      503
 93
      257
310
90E312F31323822203D2031272D3022000000000000200FC000000000000284000
  0
ACAD_PROXY_OBJECT
  5
4A
102
{ACAD_REACTORS
330
47
102
}
330
47
100
AcDbProxyObject
 90
      499
 91
      503
 93
      249
310
90D312F363422203D2031272D3022000000000000240FC000000000000284000
  0
ACAD_PROXY_OBJECT
  5
4B
102
{ACAD_REACTORS
330
47
102
}
330
47
100
AcDbProxyObject
 90
      499
 91
      503
 93
      249
310
90D312F333222203D2031272D3022000000000000280FC000000000000284000
  0
ACAD_PROXY_OBJECT
  5
4C
102
{ACAD_REACTORS
330
47
102
}
330
47
100
AcDbProxyObject
 90
      499
 91
      503
 93
      249
310
90D312F313622203D2031272D30220000000000002C0FC000000000000284000
  0
ACAD_PROXY_OBJECT
  5
4D
102
{ACAD_REACTORS
330
47
102
}
330
47
100
AcDbProxyObject
 90
      499
 91
      503
 93
      249
310
90D332F333222203D2031272D30220000000000002E0FC000000000000284000
  0
ACAD_PROXY_OBJECT
  5
4E
102
{ACAD_REACTORS
330
47
102
}
330
47
100
AcDbProxyObject
 90
      499
 91
      503
 93
      241
310
90C312F3822203D2031272D3022000000000000300FC000000000000284000
  0
ACAD_PROXY_OBJECT
  5
4F
102
{ACAD_REACTORS
330
47
102
}
330
47
100
AcDbProxyObject
 90
      499
 91
      503
 93
      249
310
90D332F313622203D2031272D3022000000000000320FC000000000000284000
  0
ACAD_PROXY_OBJECT
  5
50
102
{ACAD_REACTORS
330
47
102
}
330
47
100
AcDbProxyObject
 90
      499
 91
      503
 93
      241
310
90C312F3422203D2031272D3022000000000000340FC000000000000284000
  0
ACAD_PROXY_OBJECT
  5
51
102
{ACAD_REACTORS
330
47
102
}
330
47
100
AcDbProxyObject
 90
      499
 91
      503
 93
      241
310
90C332F3822203D2031272D3022000000000000360FC000000000000284000
  0
ACAD_PROXY_OBJECT
  5
52
102
{ACAD_REACTORS
330
47
102
}
330
47
100
AcDbProxyObject
 90
      499
 91
      503
 93
      241
310
90C312F3222203D2031272D3022000000000000380FC000000000000284000
  0
ACAD_PROXY_OBJECT
  5
53
102
{ACAD_REACTORS
330
47
102
}
330
47
100
AcDbProxyObject
 90
      499
 91
      503
 93
      241
310
90C332F3422203D2031272D30220000000000003A0FC000000000000284000
  0
ACAD_PROXY_OBJECT
  5
54
102
{ACAD_REACTORS
330
47
102
}
330
47
100
AcDbProxyObject
 90
      499
 91
      503
 93
      161
310
90A3122203D2031272D30224000000000000284000
  0
ACAD_PROXY_OBJECT
  5
55
102
{ACAD_REACTORS
330
47
102
}
330
47
100
AcDbProxyObject
 90
      499
 91
      503
 93
      257
310
90E312D312F3222203D2031272D30220000000000003E0FC000000000000284000
  0
ACAD_PROXY_OBJECT
  5
56
102
{ACAD_REACTORS
330
47
102
}
330
47
100
AcDbProxyObject
 90
      499
 91
      503
 93
      225
310
90A3322203D2031272D302200000000000002100000000000000284000
  0
ACAD_PROXY_OBJECT
  5
57
102
{ACAD_REACTORS
330
47
102
}
330
47
100
AcDbProxyObject
 90
      499
 91
      503
 93
      225
310
90A3622203D2031272D302200000000000006100000000000000284000
  0
ACAD_PROXY_OBJECT
  5
58
102
{ACAD_REACTORS
330
47
102
}
330
47
100
AcDbProxyObject
 90
      499
 91
      503
 93
      249
310
90D31272D3022203D2031272D30220000000000000A100000000000000284000
  0
ACAD_PROXY_OBJECT
  5
2F
102
{ACAD_REACTORS
330
2A
102
}
330
2A
100
AcDbProxyObject
 90
      499
 91
      501
 93
      436
310
42CC9915DA5C99599C985B595049028333333333333E33F0000000000000F90107901411070040501600405405064090741402480A0340
1001
ACAD
1000
AcDbSavedByObjectVersion
1070
     0
  0
ACAD_PROXY_OBJECT
  5
32
102
{ACAD_REACTORS
330
2A
102
}
330
2A
100
AcDbProxyObject
 90
      499
 91
      501
 93
      388
310
4150985CDA58D07406404333333333333E33F0000000000000F90107A41107004050150841D405064090741402480A0350
1001
ACAD
1000
AcDbSavedByObjectVersion
1070
     0
  0
ACAD_PROXY_OBJECT
  5
36
102
{ACAD_REACTORS
330
2A
102
}
330
2A
100
AcDbProxyObject
 90
      499
 91
      501
 93
      428
310
42109C9A59DA1D195B90C409028333333333333E33F0000000000000F9010790141107004050150841D405064090741402480A029950
1001
ACAD
1000
AcDbSavedByObjectVersion
1070
     0
  0
ACAD_PROXY_OBJECT
  5
3A
102
{ACAD_REACTORS
330
2A
102
}
330
2A
100
AcDbProxyObject
 90
      499
 91
      501
 93
      452
310
42D0DBDB1BDC90DA185B99D95104090240C333333333333E33F0000000000000F90108901411070040501508421405064090741402480A0350
1001
ACAD
1000
AcDbSavedByObjectVersion
1070
     0
  0
ACAD_PROXY_OBJECT
  5
34
102
{ACAD_REACTORS
330
2A
102
}
330
2A
100
AcDbProxyObject
 90
      499
 91
      501
 93
      500
310
4290DBDB98D95C1D1D585B10940D028333333333333E33F0000000000000F90107902409070040501000000000018199010841D405064090740C02480A0340
1001
ACAD
1000
AcDbSavedByObjectVersion
1070
     0
  0
ACAD_PROXY_OBJECT
  5
35
102
{ACAD_REACTORS
330
2A
102
}
330
2A
100
AcDbProxyObject
 90
      499
 91
      501
 93
      412
310
40D11A5B50B409028333333333333E33F0000000000000F9010790141107004050150841D405064090741402480A02677FFFFFD0
1001
ACAD
1000
AcDbSavedByObjectVersion
1070
     0
  0
ACAD_PROXY_OBJECT
  5
3D
102
{ACAD_REACTORS
330
2A
102
}
330
2A
100
AcDbProxyObject
 90
      499
 91
      501
 93
      452
310
43115919D950DBDB1BDC93D999916409028333333333333E33F0000000000000F9010790141107004050150841D405064090741402480A0350
1001
ACAD
1000
AcDbSavedByObjectVersion
1070
     0
  0
ACAD_PROXY_OBJECT
  5
39
102
{ACAD_REACTORS
330
2A
102
}
330
2A
100
AcDbProxyObject
 90
      499
 91
      501
 93
      444
310
42D19858D95C185D1D195C9B90F409028333333333333E33F0000000000000F9010790141107004050150841D405064090741402480A0350
1001
ACAD
1000
AcDbSavedByObjectVersion
1070
     0
  0
ACAD_PROXY_OBJECT
  5
2B
102
{ACAD_REACTORS
330
2A
102
}
330
2A
100
AcDbProxyObject
 90
      499
 91
      501
 93
      380
310
41119B185D240901404333333333333E33F0000000000000F9010740A907004050150841D405064090741402480A1B50
1001
ACAD
1000
AcDbSavedByObjectVersion
1070
     0
  0
ACAD_PROXY_OBJECT
  5
2C
102
{ACAD_REACTORS
330
2A
102
}
330
2A
100
AcDbProxyObject
 90
      499
 91
      501
 93
      468
310
43519B185D15DA5D1A115919D95CD0140901404333333333333E33F0000000000000F90107409019070040501600405405064090741402480A1B50
1001
ACAD
1000
AcDbSavedByObjectVersion
1070
     0
  0
ACAD_PROXY_OBJECT
  5
2D
102
{ACAD_REACTORS
330
2A
102
}
330
2A
100
AcDbProxyObject
 90
      499
 91
      501
 93
      404
310
41D1DBDD5C985D5910240902404333333333333E33F0000000000000F9010740A9070040501641D405064090741402480A1B50
1001
ACAD
1000
AcDbSavedByObjectVersion
1070
     0
  0
ACAD_PROXY_OBJECT
  5
2E
102
{ACAD_REACTORS
330
2A
102
}
330
2A
100
AcDbProxyObject
 90
      499
 91
      501
 93
      492
310
4411DBDD5C985D5915DA5D1A115919D95CD0340902404333333333333E33F0000000000000F90107409019070040501600405405064090741402480A1B50
1001
ACAD
1000
AcDbSavedByObjectVersion
1070
     0
  0
ACAD_PROXY_OBJECT
  5
31
102
{ACAD_REACTORS
330
2A
102
}
330
2A
100
AcDbProxyObject
 90
      499
 91
      501
 93
      476
310
41921A5919195B90640502408333333333333E33F0000000000000F901079024090700405020000000000001110200405405064090740C02480A0340
1001
ACAD
1000
AcDbSavedByObjectVersion
1070
     0
  0
ACAD_PROXY_OBJECT
  5
3B
102
{ACAD_REACTORS
330
2A
102
}
330
2A
100
AcDbProxyObject
 90
      499
 91
      501
 93
      428
310
42529A5D1D195C93D999914409028333333333333E33F0000000000000F9010790141107004050150A41D405064090741402480A0350
1001
ACAD
1000
AcDbSavedByObjectVersion
1070
     0
  0
ACAD_PROXY_OBJECT
  5
38
102
{ACAD_REACTORS
330
2A
102
}
330
2A
100
AcDbProxyObject
 90
      499
 91
      501
 93
      444
310
42D31A5B995C185D1D195C9B90E409028333333333333E33F0000000000000F9010790141107004050750841D405064090741402483A0350
1001
ACAD
1000
AcDbSavedByObjectVersion
1070
     0
  0
ACAD_PROXY_OBJECT
  5
3C
102
{ACAD_REACTORS
330
2A
102
}
330
2A
100
AcDbProxyObject
 90
      499
 91
      501
 93
      444
310
42D3DD995C9A185B99D3D999915409028333333333333E33F0000000000000F9010790141107004050150941D405064090741402480A0350
1001
ACAD
1000
AcDbSavedByObjectVersion
1070
     0
  0
ACAD_PROXY_OBJECT
  5
33
102
{ACAD_REACTORS
330
2A
102
}
330
2A
100
AcDbProxyObject
 90
      499
 91
      501
 93
      428
310
425499585B1A5CDD1A58D08409038333333333333E33F0000000000000F9010740A907004050150800405405064090740C02480A1B40
1001
ACAD
1000
AcDbSavedByObjectVersion
1070
     0
  0
ACAD_PROXY_OBJECT
  5
42
102
{ACAD_REACTORS
330
2A
102
}
330
2A
100
AcDbProxyObject
 90
      499
 91
      501
 93
      420
310
4194DA1859195911B40902404333333333333E33F0000000000000F9010740A41107004050150800405405064090840C02480A0B40
1001
ACAD
1000
AcDbSavedByObjectVersion
1070
     0
  0
ACAD_PROXY_OBJECT
  5
41
102
{ACAD_REACTORS
330
2A
102
}
330
2A
100
AcDbProxyObject
 90
      499
 91
      501
 93
      516
310
4454DA18591959081DDA5D1A08195919D95CD1A40902404333333333333E33F0000000000000F901074090142907004050250800405405064090740C02480A0B40
1001
ACAD
1000
AcDbSavedByObjectVersion
1070
     0
  0
ACAD_PROXY_OBJECT
  5
3E
102
{ACAD_REACTORS
330
2A
102
}
330
2A
100
AcDbProxyObject
 90
      499
 91
      501
 93
      532
310
4394DA1859195CC81BD98811DC985E5174090240C333333333333E33F0000000000000F901079024090741D01000000000000111010841D405064090740C02480A0340
1001
ACAD
1000
AcDbSavedByObjectVersion
1070
     0
  0
ACAD_PROXY_OBJECT
  5
3F
102
{ACAD_REACTORS
330
2A
102
}
330
2A
100
AcDbProxyObject
 90
      499
 91
      501
 93
      476
310
41D4DAD95D18DA1E51840502408333333333333E33F0000000000000F901079024090741D01000000000000111010B41D405064090741802480A0340
1001
ACAD
1000
AcDbSavedByObjectVersion
1070
     0
  0
ACAD_PROXY_OBJECT
  5
37
102
{ACAD_REACTORS
330
2A
102
}
330
2A
100
AcDbProxyObject
 90
      499
 91
      501
 93
      412
310
41D51A1A58DAD95B90D409028333333333333E33F0000000000000F9010790141107004050150C41D405064090741402480A0350
1001
ACAD
1000
AcDbSavedByObjectVersion
1070
     0
  0
ACAD_PROXY_OBJECT
  5
30
102
{ACAD_REACTORS
330
2A
102
}
330
2A
100
AcDbProxyObject
 90
      499
 91
      501
 93
      420
310
4255DA5C99599C985B595059028333333333333E33F0000000000000F90107901411070040501600405405064090740C02480A0340
1001
ACAD
1000
AcDbSavedByObjectVersion
1070
     0
  0
ACAD_PROXY_OBJECT
  5
40
102
{ACAD_REACTORS
330
2A
102
}
330
2A
100
AcDbProxyObject
 90
      499
 91
      501
 93
      404
310
41560B54985E51940902404000000000000E03F0000000000000F9010740501907004050150841D405064090740C02480A1B40
1001
ACAD
1000
AcDbSavedByObjectVersion
1070
     0
  0
XRECORD
  5
1ED
102
{ACAD_REACTORS
330
1E3
102
}
330
1E3
100
AcDbXrecord
340
0
  0
XRECORD
  5
1EC
102
{ACAD_REACTORS
330
1E3
102
}
330
1E3
100
AcDbXrecord
 90
        0
  0
XRECORD
  5
203
102
{ACAD_REACTORS
330
1E3
102
}
330
1E3
100
AcDbXrecord
1000
DSTYLE
1002
{
1070
   171
 70
     2
1070
   143
 40
25.4
1070
   274
 70
     2
1070
    41
 40
0.18
1070
   141
 40
0.09
1070
   271
 70
     4
1070
    43
 40
0.38
1070
   278
 70
    46
1070
    44
 40
0.18
1070
    42
 40
0.0625
1070
   147
 40
0.09
1070
    77
 70
     0
1070
   272
 70
     4
1070
    73
 70
     1
1070
   172
 70
     0
1070
    74
 70
     1
1070
   283
 70
     1
1070
   340
340
11
1070
   140
 40
0.18
1070
   284
 70
     0
1070
    78
 70
     0
1002
}
  0
XRECORD
  5
1EE
102
{ACAD_REACTORS
330
1E3
102
}
330
1E3
100
AcDbXrecord
  1
{d93b3dac-e08f-48c1-b669-07b9d58b4bd2}
  0
XRECORD
  5
1E6
102
{ACAD_REACTORS
330
1E3
102
}
330
1E3
100
AcDbXrecord
  1

  0
XRECORD
  5
1EB
102
{ACAD_REACTORS
330
1E3
102
}
330
1E3
100
AcDbXrecord
 90
        4
  0
XRECORD
  5
1E8
102
{ACAD_REACTORS
330
1E3
102
}
330
1E3
100
AcDbXrecord
340
1A
  0
XRECORD
  5
1EA
102
{ACAD_REACTORS
330
1E3
102
}
330
1E3
100
AcDbXrecord
 90
    10781
  0
XRECORD
  5
1E9
102
{ACAD_REACTORS
330
1E3
102
}
330
1E3
100
AcDbXrecord
340
19
  0
XRECORD
  5
1F0
102
{ACAD_REACTORS
330
1E3
102
}
330
1E3
100
AcDbXrecord
 40
0.0
  0
XRECORD
  5
1F3
102
{ACAD_REACTORS
330
1E3
102
}
330
1E3
100
AcDbXrecord
340
0
  0
XRECORD
  5
1F9
102
{ACAD_REACTORS
330
1E3
102
}
330
1E3
100
AcDbXrecord
 10
0.0
 20
0.0
 30
0.0
  0
XRECORD
  5
1F5
102
{ACAD_REACTORS
330
1E3
102
}
330
1E3
100
AcDbXrecord
 10
0.0
 20
0.0
 30
0.0
  0
XRECORD
  5
1F8
102
{ACAD_REACTORS
330
1E3
102
}
330
1E3
100
AcDbXrecord
 10
0.0
 20
0.0
 30
0.0
  0
XRECORD
  5
1F6
102
{ACAD_REACTORS
330
1E3
102
}
330
1E3
100
AcDbXrecord
 10
0.0
 20
0.0
 30
0.0
  0
XRECORD
  5
1F7
102
{ACAD_REACTORS
330
1E3
102
}
330
1E3
100
AcDbXrecord
 10
0.0
 20
0.0
 30
0.0
  0
XRECORD
  5
1F4
102
{ACAD_REACTORS
330
1E3
102
}
330
1E3
100
AcDbXrecord
 10
0.0
 20
0.0
 30
0.0
  0
XRECORD
  5
1F1
102
{ACAD_REACTORS
330
1E3
102
}
330
1E3
100
AcDbXrecord
340
0
  0
XRECORD
  5
1F2
102
{ACAD_REACTORS
330
1E3
102
}
330
1E3
100
AcDbXrecord
 70
     0
  0
XRECORD
  5
1E7
102
{ACAD_REACTORS
330
1E3
102
}
330
1E3
100
AcDbXrecord
  1

  0
XRECORD
  5
1E4
102
{ACAD_REACTORS
330
1E3
102
}
330
1E3
100
AcDbXrecord
 90
        1
  0
XRECORD
  5
1E5
102
{ACAD_REACTORS
330
1E3
102
}
330
1E3
100
AcDbXrecord
 90
       70
  0
XRECORD
  5
1FC
102
{ACAD_REACTORS
330
1E3
102
}
330
1E3
100
AcDbXrecord
340
0
  0
XRECORD
  5
202
102
{ACAD_REACTORS
330
1E3
102
}
330
1E3
100
AcDbXrecord
 10
0.0
 20
0.0
 30
0.0
  0
XRECORD
  5
1FE
102
{ACAD_REACTORS
330
1E3
102
}
330
1E3
100
AcDbXrecord
 10
0.0
 20
0.0
 30
0.0
  0
XRECORD
  5
201
102
{ACAD_REACTORS
330
1E3
102
}
330
1E3
100
AcDbXrecord
 10
0.0
 20
0.0
 30
0.0
  0
XRECORD
  5
1FF
102
{ACAD_REACTORS
330
1E3
102
}
330
1E3
100
AcDbXrecord
 10
0.0
 20
0.0
 30
0.0
  0
XRECORD
  5
200
102
{ACAD_REACTORS
330
1E3
102
}
330
1E3
100
AcDbXrecord
 10
0.0
 20
0.0
 30
0.0
  0
XRECORD
  5
1FD
102
{ACAD_REACTORS
330
1E3
102
}
330
1E3
100
AcDbXrecord
 10
0.0
 20
0.0
 30
0.0
  0
XRECORD
  5
1FA
102
{ACAD_REACTORS
330
1E3
102
}
330
1E3
100
AcDbXrecord
340
0
  0
XRECORD
  5
1FB
102
{ACAD_REACTORS
330
1E3
102
}
330
1E3
100
AcDbXrecord
 70
     0
  0
XRECORD
  5
1EF
102
{ACAD_REACTORS
330
1E3
102
}
330
1E3
100
AcDbXrecord
  1
{FAEB1C32-E019-11D5-929B-00C0DF256EC4}
  0
DICTIONARYVAR
  5
20E
102
{ACAD_REACTORS
330
204
102
}
330
204
100
DictionaryVariables
280
     0
  1
1:1
  0
DICTIONARYVAR
  5
206
102
{ACAD_REACTORS
330
204
102
}
330
204
100
DictionaryVariables
280
     0
  1
Standard
  0
DICTIONARYVAR
  5
205
102
{ACAD_REACTORS
330
204
102
}
330
204
100
DictionaryVariables
280
     0
  1
Standard
  0
DICTIONARYVAR
  5
209
102
{ACAD_REACTORS
330
204
102
}
330
204
100
DictionaryVariables
280
     0
  1
2
  0
DICTIONARYVAR
  5
20A
102
{ACAD_REACTORS
330
204
102
}
330
204
100
DictionaryVariables
280
     0
  1
1
  0
DICTIONARYVAR
  5
20F
102
{ACAD_REACTORS
330
204
102
}
330
204
100
DictionaryVariables
280
     0
  1
1
  0
DICTIONARY
  5
212
330
45
100
AcDbDictionary
280
     1
  3
ACAD_XREC_ROUNDTRIP
360
213
  0
DICTIONARY
  5
210
330
44
100
AcDbDictionary
280
     1
  3
ACAD_XREC_ROUNDTRIP
360
211
  0
DICTIONARY
  5
214
330
46
100
AcDbDictionary
280
     1
  3
ACAD_XREC_ROUNDTRIP
360
215
  0
XRECORD
  5
213
102
{ACAD_REACTORS
330
212
102
}
330
212
100
AcDbXrecord
102
MATERIAL
148
0.0
149
0.0
149
0.0
 93
        0
 94
      127
282
     0
 72
     1
 77
     1
171
     1
175
     1
179
     1
273
     0
  0
XRECORD
  5
211
102
{ACAD_REACTORS
330
210
102
}
330
210
100
AcDbXrecord
102
MATERIAL
148
0.0
149
0.0
149
0.0
 93
        0
 94
      127
282
     0
 72
     1
 77
     1
171
     1
175
     1
179
     1
273
     0
  0
XRECORD
  5
215
102
{ACAD_REACTORS
330
214
102
}
330
214
100
AcDbXrecord
102
MATERIAL
148
0.0
149
0.0
149
0.0
 93
        0
 94
      127
282
     0
 72
     1
 77
     1
171
     1
175
     1
179
     1
273
     0
  0
ENDSEC
  0
EOF
